<svg width="48" height="48" viewBox="0 0 48 48" fill="none" xmlns="http://www.w3.org/2000/svg">
<path d="M19.1719 43.088V47.9495L17.9963 46.9999C17.8147 46.853 13.493 43.3444 9.1106 38.313C3.06519 31.3722 0 25.1418 0 19.7955V19.2656C0 8.69421 8.60046 0.09375 19.1719 0.09375C29.7433 0.09375 38.3438 8.69421 38.3438 19.2656V19.7955C38.3438 20.2445 38.3199 20.7004 38.2767 21.1619L34.5275 17.7415C33.7595 9.94556 27.1663 3.83459 19.1719 3.83459C10.6633 3.83459 3.74084 10.7571 3.74084 19.2656V19.7955C3.74084 28.83 15.3812 39.7668 19.1719 43.088ZM30.6749 40.4011H36.286V34.79H30.6749V40.4011ZM19.1719 11.3163C23.5551 11.3163 27.1212 14.8824 27.1212 19.2656C27.1212 23.6488 23.5551 27.215 19.1719 27.215C14.7887 27.215 11.2225 23.6488 11.2225 19.2656C11.2225 14.8824 14.7887 11.3163 19.1719 11.3163ZM19.1719 15.0571C16.8512 15.0571 14.9634 16.9449 14.9634 19.2656C14.9634 21.5859 16.8512 23.4741 19.1719 23.4741C21.4922 23.4741 23.3804 21.5859 23.3804 19.2656C23.3804 16.9449 21.4922 15.0571 19.1719 15.0571ZM45.479 37.8593L44.4272 36.8998V42.9053C44.4272 45.7017 42.152 47.9766 39.3556 47.9766H27.512C24.7156 47.9766 22.4403 45.7017 22.4403 42.9053V36.8998L21.3885 37.8593L18.8676 35.0958L33.4336 21.8071L48 35.0958L45.479 37.8593ZM40.6864 33.4871L33.4336 26.8707L26.1812 33.4871V42.9049C26.1812 43.6388 26.7781 44.2357 27.512 44.2357H39.3556C40.0895 44.2357 40.6864 43.6388 40.6864 42.9049V33.4871Z" fill="#552D1E"/>
</svg>
