<svg width="120" height="120" viewBox="0 0 120 120" fill="none" xmlns="http://www.w3.org/2000/svg">
<g clip-path="url(#clip0)">
<path d="M65.405 26.6555H54.5952C53.6239 26.6555 52.8369 27.4428 52.8369 28.4138V42.3689C52.8369 43.34 53.6239 44.1272 54.5952 44.1272H65.405C66.3763 44.1272 67.1633 43.34 67.1633 42.3689V28.4136C67.1633 27.4428 66.376 26.6555 65.405 26.6555ZM63.6467 40.6107H56.3532V30.1719H63.6467V40.6107Z" fill="black"/>
<path d="M96.7744 54.8199H87.583V40.8678C87.583 40.8678 92.1645 36.8776 92.1727 36.8703C92.8993 36.2375 92.975 35.1139 92.3438 34.3897C92.3438 34.3897 63.9496 1.78891 63.9228 1.75821C61.8798 -0.587411 58.1186 -0.585302 56.0779 1.75798C56.0779 1.75798 27.6731 34.371 27.6569 34.3895C27.0236 35.1165 27.1021 36.238 27.8278 36.8701L32.4173 40.8676V54.8197H23.2261V54.8199C22.2548 54.8199 21.4678 55.6069 21.4678 56.5782V81.4676C21.4678 82.4386 22.2548 83.2259 23.2261 83.2259H33.6508V118.241C33.6508 119.212 34.4378 120 35.4091 120H42.2959C43.2672 120 44.0542 119.212 44.0542 118.241V115.928L60.0004 106.293L75.9465 115.928V118.241C75.9465 119.212 76.7335 120 77.7048 120H84.5919C85.5631 120 86.3502 119.212 86.3502 118.241V83.2256H96.7747C97.7459 83.2256 98.5329 82.4384 98.5329 81.4674V56.5779C98.5327 55.6069 97.7457 54.8199 96.7744 54.8199ZM31.4627 35.3734L58.7293 4.0675C59.0493 3.70024 59.5126 3.48907 59.9999 3.48907C60.4872 3.48907 60.9505 3.69977 61.2707 4.0675L88.5371 35.3734L85.9955 37.5868C85.9955 37.5868 82.888 34.0192 82.8716 34.0004C81.3854 32.2939 78.7229 34.5915 80.2198 36.3097L84.0662 40.7256V54.8197H35.9338V40.7256L60.0001 13.0944L75.654 31.0672C76.2915 31.7996 77.402 31.876 78.1344 31.2383C78.8668 30.6003 78.9432 29.4899 78.3052 28.7577C78.3052 28.7577 61.3497 9.29007 61.3255 9.26241C60.6308 8.46484 59.3657 8.46765 58.6738 9.26241L34.0045 37.5868L31.4627 35.3734ZM24.9843 65.2229H28.3549V72.8222H24.9843V65.2229ZM40.5377 116.483H37.1674V83.2256H40.5377V116.483ZM44.0537 92.5481V88.6102L56.6003 96.1915L53.342 98.1605L44.0537 92.5481ZM49.9426 100.215L44.054 103.773V96.6565L49.9426 100.215ZM75.9463 111.82L63.3997 104.238L66.6582 102.269L75.9463 107.882V111.82ZM75.9465 103.773L70.0581 100.215L75.9465 96.6569V103.773ZM75.9465 92.5481L44.054 111.82V107.882L75.9465 88.6102V92.5481ZM75.9465 84.5016L60.0004 94.1374L44.0542 84.5018V83.2256H75.9467V84.5016H75.9465ZM82.8334 116.483H79.4626V83.2256H82.8331V116.483H82.8334ZM95.0159 79.7093H24.9843V76.3388H95.0159V79.7093ZM31.8714 72.8224V65.2231H38.1334V72.8224H31.8714ZM41.6498 72.8224V65.2231H45.0201V72.8224H41.6498ZM48.5366 72.8224V65.2231H54.7989V72.8224H48.5366ZM58.3152 72.8224V65.2231H61.6855V72.8224H58.3152ZM65.2018 72.8224V65.2231H71.4636V72.8224H65.2018ZM74.9799 72.8224V65.2231H78.3505V72.8224H74.9799ZM81.867 72.8224V65.2231H88.1291V72.8224H81.867ZM91.6454 72.8224V65.2231H95.0157V72.8224H91.6454ZM95.0159 61.7065H24.9843V58.3362H95.0159V61.7065Z" fill="#552D1E"/>
</g>
<defs>
<clipPath id="clip0">
<rect width="120" height="120" fill="white"/>
</clipPath>
</defs>
</svg>
