<svg width="120" height="120" viewBox="0 0 120 120" fill="none" xmlns="http://www.w3.org/2000/svg">
<g clip-path="url(#clip0)">
<path d="M60.0039 97.1843H59.9718C58.6204 97.1843 57.5244 98.28 57.5244 99.6316C57.5244 100.983 58.6204 102.079 59.9718 102.079H60.0039C61.3553 102.079 62.4512 100.983 62.4512 99.6316C62.4512 98.28 61.3553 97.1843 60.0039 97.1843Z" fill="black"/>
<path d="M59.9716 97.1843H59.9395C58.5881 97.1843 57.4922 98.28 57.4922 99.6316C57.4922 100.983 58.5881 102.079 59.9395 102.079H59.9716C61.323 102.079 62.419 100.983 62.419 99.6316C62.419 98.28 61.323 97.1843 59.9716 97.1843Z" fill="black"/>
<path d="M2.47945 113.759H2.44734C1.09594 113.759 0 114.855 0 116.207C0 117.558 1.09594 118.654 2.44734 118.654H2.47945C3.83086 118.654 4.9268 117.558 4.9268 116.207C4.9268 114.855 3.83086 113.759 2.47945 113.759Z" fill="black"/>
<path d="M117.473 113.76H117.441C116.089 113.76 114.993 114.855 114.993 116.207C114.993 117.559 116.089 118.654 117.441 118.654H117.473C118.824 118.654 119.92 117.559 119.92 116.207C119.92 114.855 118.824 113.76 117.473 113.76Z" fill="black"/>
<path d="M68.8855 48.4166C67.3773 48.4166 66.1499 49.6438 66.1499 51.1523C66.1499 52.6605 67.3773 53.8876 68.8855 53.8876C70.3937 53.8876 71.6207 52.6605 71.6209 51.1523C71.6209 49.6436 70.3937 48.4166 68.8855 48.4166Z" fill="black"/>
<path d="M51.0347 48.4166C49.5265 48.4166 48.2993 49.6438 48.2993 51.1523C48.2993 52.6605 49.5265 53.8876 51.0347 53.8876C52.5429 53.8876 53.7703 52.6605 53.7703 51.1523C53.7703 49.6436 52.5429 48.4166 51.0347 48.4166Z" fill="black"/>
<path d="M62.3618 59.947H57.5787C56.2273 59.947 55.1313 61.0427 55.1313 62.3943C55.1313 65.0624 57.3021 67.2332 59.9703 67.2332C62.6384 67.2332 64.8089 65.0627 64.8092 62.3943C64.8092 61.0427 63.7132 59.947 62.3618 59.947Z" fill="black"/>
<path d="M18.4341 103.096L12.7234 97.3859L14.627 95.4821C15.5827 94.5263 15.5827 92.9766 14.627 92.021C13.6709 91.0653 12.122 91.0653 11.1657 92.021L3.8975 99.2895C2.94172 100.245 2.94172 101.795 3.8975 102.75C4.37539 103.228 5.00164 103.467 5.62813 103.467C6.25461 103.467 6.88062 103.228 7.35875 102.75L9.26211 100.847L14.9729 106.557C15.4508 107.035 16.077 107.274 16.7035 107.274C17.3298 107.274 17.956 107.035 18.4339 106.557C19.3902 105.602 19.3902 104.052 18.4341 103.096Z" fill="black"/>
<path d="M119.283 30.0059L112.015 22.7375C111.06 21.7817 109.511 21.7817 108.554 22.7375C107.598 23.6932 107.598 25.2427 108.554 26.1985L110.457 28.1023L104.747 33.8129C103.791 34.7686 103.791 36.3183 104.747 37.2739C105.225 37.7518 105.851 37.9906 106.477 37.9906C107.104 37.9906 107.73 37.7515 108.208 37.2739L113.919 31.5633L115.822 33.4669C116.3 33.9448 116.926 34.1836 117.553 34.1836C118.179 34.1836 118.805 33.9446 119.283 33.4669C120.239 32.5111 120.239 30.9614 119.283 30.0059Z" fill="black"/>
<path d="M114.547 65.792H92.7506C91.3992 65.792 90.3032 66.8877 90.3032 68.2393V81.459C90.3032 82.8106 91.3992 83.9063 92.7506 83.9063H98.2649V113.76H95.9449V97.2121C95.9449 92.4413 93.0658 87.9104 88.9441 86.1929L73.1934 79.6304C72.6335 79.3972 72.2716 78.8544 72.2716 78.2474V74.4367L78.6688 70.7687C78.7134 70.7429 78.7572 70.7162 78.8001 70.6876C82.0033 68.5724 84.1063 64.8106 84.4263 60.6247C84.4312 60.5628 84.4333 60.5005 84.4333 60.4381V58.4063C87.6114 57.3725 89.9151 54.3819 89.9151 50.8635C89.9151 47.345 87.6112 44.3539 84.4331 43.3203V41.5635H87.4581C89.2977 41.5635 90.7942 40.067 90.7942 38.2274V33.2492C90.7942 31.6405 89.6495 30.294 88.1322 29.9813C87.2392 23.7135 84.2948 17.9127 79.7055 13.4595C76.4167 10.2685 72.4347 7.9208 68.0957 6.60009V4.79283C68.0957 2.89205 66.5992 1.34564 64.7592 1.34564H55.1585C53.3186 1.34564 51.8219 2.89205 51.8219 4.79283V6.46017C47.2977 7.75088 43.1524 10.1467 39.7385 13.4595C35.114 17.9464 32.1599 23.8009 31.2913 30.1241C30.0264 30.5987 29.1238 31.8202 29.1238 33.2492V38.2274C29.1238 40.067 30.6203 41.5635 32.4599 41.5635H35.4855V43.3203C32.3074 44.3542 30.0037 47.3448 30.0037 50.8632C30.0037 54.3817 32.3074 57.3725 35.4855 58.4061V60.4379C35.4855 60.5 35.4878 60.5624 35.4925 60.6245C35.8138 64.8275 37.9024 68.5892 41.0793 70.6874C41.1231 70.7164 41.1677 70.7438 41.2134 70.7699L47.6472 74.4479V78.2471C47.6472 78.8539 47.2853 79.3967 46.7252 79.6302L30.9745 86.1929C26.8525 87.9104 23.9737 92.4418 23.9737 97.2118V113.76H10.3971C9.04564 113.76 7.94971 114.855 7.94971 116.207C7.94971 117.559 9.04564 118.654 10.3971 118.654H109.523C110.874 118.654 111.97 117.559 111.97 116.207C111.97 114.855 110.874 113.76 109.523 113.76H109.034V83.9063H114.548C115.899 83.9063 116.995 82.8106 116.995 81.459V68.2393C116.995 66.8877 115.899 65.792 114.547 65.792ZM34.0197 36.6683V34.7572C35.08 34.5399 35.8971 33.6355 35.9685 32.5156C36.3452 26.6192 38.8947 21.099 43.1484 16.9719C46.3816 13.8348 50.4018 11.6895 54.775 10.7682C55.9073 10.5296 56.7178 9.53049 56.7178 8.37361V6.2401H63.2017V8.47814C63.2017 9.61838 63.989 10.6074 65.1002 10.8631C69.3037 11.8306 73.1756 13.9431 76.2974 16.9721C80.5506 21.099 83.1004 26.6192 83.477 32.5159C83.5588 33.7977 84.6175 34.7973 85.9 34.8071V36.6685H34.0197V36.6683ZM43.7177 66.5628C41.8476 65.2965 40.6061 62.9809 40.3809 60.3392V56.345C40.3809 54.9934 39.2849 53.8977 37.9335 53.8977C36.2603 53.8977 34.8991 52.5362 34.8991 50.8632C34.8991 49.1903 36.2606 47.8288 37.9335 47.8288C39.2849 47.8288 40.3809 46.7331 40.3809 45.3814V41.5632H79.5384V45.3814C79.5384 46.7331 80.6343 47.8288 81.9857 47.8288C83.6589 47.8288 85.0202 49.1903 85.0202 50.8632C85.0202 52.5362 83.6589 53.8977 81.9857 53.8977C80.6343 53.8977 79.5384 54.9934 79.5384 56.345V60.3388C79.3162 62.9267 78.0292 65.2986 76.1608 66.5635L63.0213 74.098C62.9767 74.1238 62.9329 74.1505 62.89 74.1791C61.0551 75.3908 58.8649 75.3908 57.0299 74.1791C56.9861 74.1502 56.9416 74.1226 56.8959 74.0966L43.7177 66.5628ZM67.382 78.3957C65.6266 80.7184 62.913 82.0862 59.9718 82.0862C57.0161 82.0862 54.2931 80.7076 52.5386 78.3664C52.5393 78.3266 52.5431 78.2874 52.5431 78.2471V77.2459L54.4028 78.309C56.1208 79.4246 58.0403 79.9824 59.9603 79.9824C61.8808 79.9824 63.801 79.4242 65.5192 78.3081L67.3771 77.2428V78.2471C67.3767 78.2971 67.3811 78.346 67.382 78.3957ZM34.1524 113.76H28.8696V97.2121C28.8696 94.4537 30.5845 91.6588 32.8584 90.7112L34.1524 90.1721V113.76ZM39.0471 113.76V88.1324L43.5747 86.2459V99.6315C43.5747 100.983 44.6706 102.079 46.022 102.079H52.0225C53.3739 102.079 54.4699 100.983 54.4699 99.6315C54.4699 98.2799 53.3739 97.1842 52.0225 97.1842H48.4694V84.2063L48.6091 84.148C49.2189 83.8937 49.773 83.5524 50.261 83.1439C52.8571 85.5889 56.2973 86.9806 59.9716 86.9806C63.6379 86.9806 67.0745 85.5924 69.6702 83.1547C70.1556 83.559 70.7057 83.8963 71.3106 84.1482L71.4742 84.2162V97.1839H67.9211C66.5697 97.1839 65.4738 98.2796 65.4738 99.6313C65.4738 100.983 66.5697 102.079 67.9211 102.079H73.9216C75.273 102.079 76.3689 100.983 76.3689 99.6313V86.2555L80.8966 88.142V113.759H39.0471V113.76ZM91.0502 113.76H85.7913V90.1817L87.0613 90.7112C89.3353 91.6585 91.0499 94.4535 91.0499 97.2121V113.76H91.0502ZM104.139 113.76H103.16V83.9063H104.139V113.76ZM112.1 79.0117H95.1981V70.6864H112.1V79.0117Z" fill="#552D1E"/>
<path d="M27.1255 69.8704L22.5777 64.0635L24.5057 58.0724C24.729 57.3782 24.6313 56.6205 24.2387 56.0057L20.9706 50.8874L22.4176 46.4399C22.6354 45.7703 22.5545 45.0395 22.1952 44.4341L19.3492 39.6369L20.5032 34.773C20.6598 34.1139 20.5361 33.4194 20.1615 32.8551L17.0251 28.1277L19.2908 23.5466C19.585 22.9518 19.6248 22.263 19.4017 21.6381L17.2138 15.5158L18.1311 9.94046C18.2502 9.21553 18.0376 8.47538 17.552 7.9246L14.8187 4.82499C14.3542 4.29811 13.6853 3.996 12.9829 3.996H2.47957C1.12816 3.996 0.0322266 5.09171 0.0322266 6.44335V81.4136C0.0322266 82.7652 1.12816 83.8609 2.47957 83.8609H25.1987C26.5501 83.8609 27.6461 82.7652 27.6461 81.4136V71.3795C27.6461 70.8325 27.4628 70.3012 27.1255 69.8704ZM4.92691 8.89069H11.878L13.1127 10.2913L12.2814 15.3461C12.2141 15.7558 12.2521 16.176 12.3915 16.5672L14.4432 22.308L12.013 27.2216C11.6263 28.0037 11.6851 28.9326 12.1675 29.6596L15.4963 34.6766L14.3591 39.4701C14.2126 40.0876 14.3115 40.7378 14.6354 41.2839L17.421 45.9791L15.9587 50.4733C15.7323 51.1696 15.8296 51.9304 16.2233 52.5475L19.4938 57.6698L18.3074 61.3562H4.92691V8.89069ZM22.7514 78.9662H4.92691V66.2502H18.0728L22.7514 72.224V78.9662Z" fill="black"/>
<path d="M14.5739 70.8979H8.9449C7.5935 70.8979 6.49756 71.9936 6.49756 73.3453C6.49756 74.6969 7.5935 75.7926 8.9449 75.7926H14.5739C15.9253 75.7926 17.0212 74.6969 17.0212 73.3453C17.0212 71.9936 15.9253 70.8979 14.5739 70.8979Z" fill="black"/>
<path d="M56.8156 16.7068C56.5566 15.38 55.2706 14.5133 53.9455 14.7728C50.9014 15.3657 48.0995 16.7502 45.8417 18.7761C42.8288 21.4799 41.022 25.1125 40.753 29.0047C40.6599 30.3533 41.6776 31.5219 43.0262 31.6147C43.0834 31.6187 43.1406 31.6206 43.197 31.6206C44.472 31.6206 45.5469 30.6329 45.6366 29.3418C45.8171 26.7266 47.0511 24.268 49.1117 22.4188C50.7106 20.9837 52.7059 20.0007 54.8818 19.577C56.2081 19.3187 57.0744 18.0334 56.8156 16.7068Z" fill="black"/>
</g>
<defs>
<clipPath id="clip0">
<rect width="120" height="120" fill="white"/>
</clipPath>
</defs>
</svg>
