<svg width="110" height="111" viewBox="0 0 110 111" fill="none" xmlns="http://www.w3.org/2000/svg">
<g filter="url(#filter0_d)">
<rect x="20" y="15.3906" width="70" height="70" fill="#552D1E"/>
</g>
<path d="M62.6292 31.315L62.4547 32.2836C65.4466 33.3977 68.1541 35.2226 70.3396 37.6381C73.6824 41.3337 75.5234 46.1149 75.5234 51.1024C75.5234 51.1824 75.4589 51.2469 75.3789 51.2469C75.299 51.2469 75.2343 51.1822 75.2343 51.1024C75.2343 41.207 68.0045 32.9148 58.2983 31.5202L57.7272 31.4381V32.0151V33.3062C57.7272 33.3862 57.6627 33.4507 57.5827 33.4507H53.3116C53.2318 33.4507 53.1671 33.3861 53.1671 33.3062V32.0151V31.4381L52.596 31.5202C42.8898 32.9148 35.6597 41.207 35.6597 51.1024C35.6597 51.1822 35.595 51.2469 35.5151 51.2469C35.4353 51.2469 35.3706 51.1822 35.3706 51.1024C35.3706 46.1149 37.2116 41.3337 40.5548 37.6381C42.7399 35.2226 45.4474 33.3981 48.4393 32.2839L48.2648 31.3154H40.3273H39.9655L39.8524 31.6591C39.646 32.2863 39.0549 32.7387 38.3625 32.7387C37.4982 32.7387 36.7943 32.035 36.7943 31.1708C36.7943 30.3066 37.4983 29.6026 38.3625 29.6026C39.0549 29.6026 39.646 30.0551 39.8523 30.6825L39.9654 31.0263H40.3273H52.6671H53.1671V30.5263V29.0352C53.1671 28.9553 53.2318 28.8906 53.3116 28.8906H57.5827C57.6627 28.8906 57.7272 28.9551 57.7272 29.0352V30.526V31.026H58.2272H70.567H70.9289L71.042 30.6822C71.2483 30.055 71.8394 29.6026 72.5315 29.6026C73.3958 29.6026 74.0997 30.3064 74.0997 31.1705C74.0997 32.0348 73.396 32.7387 72.5315 32.7387C71.8391 32.7387 71.248 32.2863 71.0417 31.6588L70.9286 31.315H70.5667H62.6292ZM53.4562 32.6617V33.1617H53.9562H56.9382H57.4382V32.6617V31.2826V31.2803V31.1722V31.1705V31.1688V29.6797V29.1797H56.9382H53.9562H53.4562V29.6797V31.2813V31.2816V32.6617ZM73.8106 31.1705C73.8106 30.4649 73.2372 29.8917 72.5315 29.8917C71.8258 29.8917 71.2524 30.4649 71.2524 31.1705C71.2524 31.8763 71.8257 32.4497 72.5315 32.4497C73.2373 32.4497 73.8106 31.8763 73.8106 31.1705ZM37.0834 31.1708C37.0834 31.8765 37.6568 32.4497 38.3625 32.4497C39.0682 32.4497 39.6416 31.8765 39.6416 31.1708C39.6416 30.465 39.0683 29.8917 38.3625 29.8917C37.6567 29.8917 37.0834 30.465 37.0834 31.1708Z" fill="white" stroke="white" stroke-width="0.999998"/>
<mask id="path-3-inside-1" fill="white">
<path d="M57.4336 35.8396C57.3198 35.6355 57.1046 35.5089 56.871 35.5089H54.0233C53.79 35.5089 53.5745 35.6355 53.4607 35.8396L44.9182 51.1442C44.8649 51.2402 44.8367 51.3483 44.8367 51.4584V52.1704C44.8367 52.2923 44.8712 52.4115 44.9364 52.5145L48.583 58.2881H46.1929C45.837 58.2881 45.5483 58.5765 45.5483 58.9327C45.5483 59.2885 45.837 59.5772 46.1929 59.5772H46.2603V61.78C46.2603 62.1362 46.5487 62.4246 46.9049 62.4246H47.6837V64.6277C47.6837 64.9836 47.9724 65.2723 48.3282 65.2723H49.1077V67.4727V67.4751V67.4778V71.7461C49.1077 72.1023 49.3964 72.3907 49.7522 72.3907H61.142C61.4979 72.3907 61.7866 72.1023 61.7866 71.7461V65.2723H62.5657C62.9215 65.2723 63.2102 64.9836 63.2102 64.6277V62.4246H63.9894C64.3452 62.4246 64.6339 62.1362 64.6339 61.78V59.5772H64.7014C65.0572 59.5772 65.3459 59.2885 65.3459 58.9327C65.3459 58.5765 65.0572 58.2881 64.7014 58.2881H63.9911C63.9904 58.2881 63.99 58.2881 63.9894 58.2881C63.9887 58.2881 63.9884 58.2881 63.9877 58.2881H62.3112L65.9579 52.5145C66.023 52.4115 66.0576 52.2923 66.0576 52.1704V51.4584C66.0576 51.3483 66.0294 51.2402 65.9757 51.1442L57.4336 35.8396ZM55.4473 49.6114C55.877 49.6114 56.2264 49.9609 56.2264 50.3906C56.2264 50.8203 55.877 51.1697 55.4473 51.1697C55.0176 51.1697 54.6682 50.8203 54.6682 50.3906C54.6682 49.9609 55.0176 49.6114 55.4473 49.6114ZM61.9212 63.9829H54.8494C54.4936 63.9829 54.2049 64.2715 54.2049 64.6274C54.2049 64.9836 54.4936 65.2719 54.8494 65.2719H60.4975V66.8302H59.718C59.3622 66.8302 59.0735 67.1186 59.0735 67.4747C59.0735 67.8309 59.3622 68.1193 59.718 68.1193H60.4971V71.1016H50.3968V68.1196H51.1759C51.5318 68.1196 51.8205 67.8313 51.8205 67.4751C51.8205 67.1189 51.5318 66.8305 51.1759 66.8305H50.3968V65.2719H52.0954C52.4516 65.2719 52.7399 64.9836 52.7399 64.6274C52.7399 64.2715 52.4516 63.9829 52.0954 63.9829H48.9728V62.4246H61.9212V63.9829ZM63.3448 61.1355H47.5494V59.5772H61.14H61.1413H61.1427H63.3448V61.1355ZM64.7685 51.9838L63.4842 54.0171H61.8537C61.4979 54.0171 61.2092 54.3055 61.2092 54.6616C61.2092 55.0178 61.4979 55.3062 61.8537 55.3062H62.6701L60.7865 58.2881H56.0915V56.797C56.0915 56.4411 55.8031 56.1524 55.447 56.1524C55.0911 56.1524 54.8024 56.4411 54.8024 56.797V58.2881H50.1074L48.2242 55.3062H49.0402C49.3964 55.3062 49.6848 55.0178 49.6848 54.6616C49.6848 54.3055 49.3964 54.0171 49.0402 54.0171H47.4098L46.1257 51.9838V51.6259L54.4019 36.798H54.8024V48.4258C53.977 48.6973 53.3787 49.4751 53.3787 50.3902C53.3787 51.5309 54.3066 52.4588 55.447 52.4588C56.5877 52.4588 57.5155 51.5309 57.5155 50.3902C57.5155 49.4751 56.9173 48.697 56.0918 48.4258V36.798H56.4923L64.7685 51.6259V51.9838Z"/>
</mask>
<path d="M57.4336 35.8396C57.3198 35.6355 57.1046 35.5089 56.871 35.5089H54.0233C53.79 35.5089 53.5745 35.6355 53.4607 35.8396L44.9182 51.1442C44.8649 51.2402 44.8367 51.3483 44.8367 51.4584V52.1704C44.8367 52.2923 44.8712 52.4115 44.9364 52.5145L48.583 58.2881H46.1929C45.837 58.2881 45.5483 58.5765 45.5483 58.9327C45.5483 59.2885 45.837 59.5772 46.1929 59.5772H46.2603V61.78C46.2603 62.1362 46.5487 62.4246 46.9049 62.4246H47.6837V64.6277C47.6837 64.9836 47.9724 65.2723 48.3282 65.2723H49.1077V67.4727V67.4751V67.4778V71.7461C49.1077 72.1023 49.3964 72.3907 49.7522 72.3907H61.142C61.4979 72.3907 61.7866 72.1023 61.7866 71.7461V65.2723H62.5657C62.9215 65.2723 63.2102 64.9836 63.2102 64.6277V62.4246H63.9894C64.3452 62.4246 64.6339 62.1362 64.6339 61.78V59.5772H64.7014C65.0572 59.5772 65.3459 59.2885 65.3459 58.9327C65.3459 58.5765 65.0572 58.2881 64.7014 58.2881H63.9911C63.9904 58.2881 63.99 58.2881 63.9894 58.2881C63.9887 58.2881 63.9884 58.2881 63.9877 58.2881H62.3112L65.9579 52.5145C66.023 52.4115 66.0576 52.2923 66.0576 52.1704V51.4584C66.0576 51.3483 66.0294 51.2402 65.9757 51.1442L57.4336 35.8396ZM55.4473 49.6114C55.877 49.6114 56.2264 49.9609 56.2264 50.3906C56.2264 50.8203 55.877 51.1697 55.4473 51.1697C55.0176 51.1697 54.6682 50.8203 54.6682 50.3906C54.6682 49.9609 55.0176 49.6114 55.4473 49.6114ZM61.9212 63.9829H54.8494C54.4936 63.9829 54.2049 64.2715 54.2049 64.6274C54.2049 64.9836 54.4936 65.2719 54.8494 65.2719H60.4975V66.8302H59.718C59.3622 66.8302 59.0735 67.1186 59.0735 67.4747C59.0735 67.8309 59.3622 68.1193 59.718 68.1193H60.4971V71.1016H50.3968V68.1196H51.1759C51.5318 68.1196 51.8205 67.8313 51.8205 67.4751C51.8205 67.1189 51.5318 66.8305 51.1759 66.8305H50.3968V65.2719H52.0954C52.4516 65.2719 52.7399 64.9836 52.7399 64.6274C52.7399 64.2715 52.4516 63.9829 52.0954 63.9829H48.9728V62.4246H61.9212V63.9829ZM63.3448 61.1355H47.5494V59.5772H61.14H61.1413H61.1427H63.3448V61.1355ZM64.7685 51.9838L63.4842 54.0171H61.8537C61.4979 54.0171 61.2092 54.3055 61.2092 54.6616C61.2092 55.0178 61.4979 55.3062 61.8537 55.3062H62.6701L60.7865 58.2881H56.0915V56.797C56.0915 56.4411 55.8031 56.1524 55.447 56.1524C55.0911 56.1524 54.8024 56.4411 54.8024 56.797V58.2881H50.1074L48.2242 55.3062H49.0402C49.3964 55.3062 49.6848 55.0178 49.6848 54.6616C49.6848 54.3055 49.3964 54.0171 49.0402 54.0171H47.4098L46.1257 51.9838V51.6259L54.4019 36.798H54.8024V48.4258C53.977 48.6973 53.3787 49.4751 53.3787 50.3902C53.3787 51.5309 54.3066 52.4588 55.447 52.4588C56.5877 52.4588 57.5155 51.5309 57.5155 50.3902C57.5155 49.4751 56.9173 48.697 56.0918 48.4258V36.798H56.4923L64.7685 51.6259V51.9838Z" fill="white" stroke="white" stroke-width="2" mask="url(#path-3-inside-1)"/>
<defs>
<filter id="filter0_d" x="0" y="0.390625" width="110" height="110" filterUnits="userSpaceOnUse" color-interpolation-filters="sRGB">
<feFlood flood-opacity="0" result="BackgroundImageFix"/>
<feColorMatrix in="SourceAlpha" type="matrix" values="0 0 0 0 0 0 0 0 0 0 0 0 0 0 0 0 0 0 127 0"/>
<feOffset dy="5"/>
<feGaussianBlur stdDeviation="10"/>
<feColorMatrix type="matrix" values="0 0 0 0 0.890196 0 0 0 0 0.721569 0 0 0 0 0.45098 0 0 0 0.5 0"/>
<feBlend mode="normal" in2="BackgroundImageFix" result="effect1_dropShadow"/>
<feBlend mode="normal" in="SourceGraphic" in2="effect1_dropShadow" result="shape"/>
</filter>
</defs>
</svg>
