<svg width="110" height="111" viewBox="0 0 110 111" fill="none" xmlns="http://www.w3.org/2000/svg">
<g filter="url(#filter0_d)">
<rect x="20" y="15.3906" width="70" height="70" fill="#552D1E"/>
</g>
<g clip-path="url(#clip0)">
<path d="M57.3697 28.3906C48.3791 28.3906 41.0647 35.705 41.0647 44.6956V47.3694L36.5248 55.183C36.4677 55.2813 36.4375 55.3931 36.4375 55.5069V58.2207C36.4375 58.5768 36.7262 58.8652 37.082 58.8652H41.0647L41.065 63.2037C41.065 65.1292 42.6314 66.6956 44.5569 66.6956H45.8681C46.224 66.6956 46.5123 66.4069 46.5123 66.0511C46.5123 65.6949 46.224 65.4065 45.8678 65.4065H44.5569C43.342 65.4065 42.3541 64.4182 42.3541 63.2037V58.8652H44.2007C44.5566 58.8652 44.8453 58.5768 44.8453 58.2207V53.9496C44.8453 53.5938 44.5566 53.3051 44.2007 53.3051H42.7771C42.4209 53.3051 42.1325 53.5938 42.1325 53.9496C42.1325 54.3058 42.4209 54.5942 42.7771 54.5942H43.5562V57.5761H37.7266V56.0179H39.9294C40.2852 56.0179 40.5739 55.7292 40.5739 55.3733C40.5739 55.0172 40.2852 54.7288 39.9294 54.7288H38.2798L42.2581 47.8813C42.3188 47.7826 42.3538 47.6668 42.3538 47.5433V44.6956C42.3538 36.416 49.0898 29.6797 57.3697 29.6797C65.6499 29.6797 72.3859 36.416 72.3859 44.6956V50.3903C72.3859 56.5835 68.6822 62.0449 62.9402 64.3383H61.2849C60.9287 64.3383 60.6403 64.6267 60.6403 64.9829C60.6403 65.3391 60.9287 65.6274 61.2849 65.6274H62.4202V71.1016H50.54V66.6956H52.0308C52.387 66.6956 52.6753 66.4072 52.6753 66.0511C52.6753 65.6952 52.387 65.4065 52.0308 65.4065H49.8971H49.8954H48.4503C48.0945 65.4065 47.8058 65.6949 47.8058 66.0511C47.8058 66.4069 48.0945 66.6956 48.4503 66.6956H49.2509V71.7461C49.2509 72.1023 49.5396 72.3906 49.8954 72.3906H63.0647C63.4205 72.3906 63.7092 72.1023 63.7092 71.7461V65.4166C66.5559 64.2155 68.9883 62.243 70.7642 59.6903C72.6682 56.9528 73.675 53.7372 73.675 50.3903V44.6956C73.675 35.705 66.3605 28.3906 57.3697 28.3906Z" fill="white"/>
<path d="M48.885 43.9839C48.885 45.7235 49.408 47.3949 50.398 48.8179C51.2798 50.0855 52.4729 51.0775 53.8677 51.7079V53.0383H53.8006C53.4444 53.0383 53.156 53.3266 53.156 53.6828C53.156 54.0386 53.4444 54.3273 53.8006 54.3273H53.8677V56.0854C53.8677 56.4412 54.1564 56.7299 54.5122 56.7299H54.5797V58.221C54.5797 58.5769 54.8684 58.8656 55.2242 58.8656H59.4953C59.8511 58.8656 60.1398 58.5769 60.1398 58.221V56.7299H60.2073C60.5631 56.7299 60.8518 56.4412 60.8518 56.0854V54.3273H60.9189C61.2751 54.3273 61.5635 54.0386 61.5635 53.6828C61.5635 53.3266 61.2751 53.0383 60.9189 53.0383H60.8518V51.7079C62.2466 51.0775 63.4397 50.0855 64.3215 48.8179C65.3112 47.3949 65.8345 45.7235 65.8345 43.9839C65.8345 39.3108 62.0328 35.509 57.3596 35.509C52.6867 35.509 48.885 39.3108 48.885 43.9839ZM55.8688 46.0522H56.381L57.6157 47.2872C57.7366 47.408 57.9007 47.4762 58.0716 47.4762C58.2425 47.4762 58.4066 47.408 58.5275 47.2872L58.8507 46.9639V50.6357H55.8688V46.0522ZM58.8507 57.5765H55.8688V56.7299H58.8507V57.5765ZM59.5627 55.4408H55.1568V54.3273H59.5627V55.4408ZM55.1568 53.0383V51.9248H59.5627V53.0383H55.1568ZM57.3599 36.7981C61.3221 36.7981 64.5454 40.0218 64.5454 43.9839C64.5454 46.9062 62.822 49.4873 60.1398 50.6109V45.4076C60.1398 45.4076 60.1398 45.4076 60.1398 45.4073V44.6956C60.1398 44.3398 59.8511 44.0511 59.4953 44.0511C59.1391 44.0511 58.8507 44.3398 58.8507 44.6956V45.1407L58.0716 45.9199L57.1038 44.9518C56.9829 44.8309 56.8188 44.7631 56.6479 44.7631H55.8688V44.6956C55.8688 44.3398 55.5804 44.0511 55.2242 44.0511C54.8684 44.0511 54.5797 44.3398 54.5797 44.6956V50.6109C51.8975 49.4873 50.1741 46.9062 50.1741 43.9839C50.1741 40.0218 53.3974 36.7981 57.3599 36.7981Z" fill="white"/>
<path d="M58.0042 34.0178V31.8824C58.0042 31.5263 57.7158 31.2379 57.3596 31.2379C57.0038 31.2379 56.7151 31.5263 56.7151 31.8824V34.0178C56.7151 34.374 57.0038 34.6623 57.3596 34.6623C57.7158 34.6623 58.0042 34.374 58.0042 34.0178Z" fill="white"/>
<path d="M49.1955 34.997C48.9438 34.7456 48.5356 34.7456 48.2838 34.997C48.0324 35.2488 48.0324 35.657 48.2838 35.9088L49.7941 37.4187C49.92 37.5446 50.0848 37.6077 50.2499 37.6077C50.4148 37.6077 50.5796 37.5446 50.7055 37.4187C50.9573 37.167 50.9573 36.7591 50.7055 36.5073L49.1955 34.997Z" fill="white"/>
<path d="M47.3049 43.4283H45.1692C44.8134 43.4283 44.5247 43.717 44.5247 44.0729C44.5247 44.429 44.8134 44.7174 45.1692 44.7174H47.3049C47.6607 44.7174 47.9494 44.429 47.9494 44.0729C47.9494 43.717 47.6607 43.4283 47.3049 43.4283Z" fill="white"/>
<path d="M49.7944 50.727L48.2842 52.2373C48.0324 52.4891 48.0324 52.897 48.2842 53.1487C48.41 53.2746 48.5749 53.3374 48.7397 53.3374C48.9049 53.3374 49.0697 53.2746 49.1956 53.1487L50.7059 51.6388C50.9576 51.387 50.9576 50.9788 50.7059 50.727C50.4541 50.4753 50.0459 50.4756 49.7944 50.727Z" fill="white"/>
<path d="M64.014 50.727C63.7623 50.9788 63.7623 51.3867 64.014 51.6384L65.524 53.1487C65.6499 53.2746 65.815 53.3374 65.9798 53.3374C66.1447 53.3374 66.3098 53.2746 66.4357 53.1487C66.6875 52.897 66.6875 52.4888 66.4357 52.237L64.9254 50.727C64.6737 50.4753 64.2658 50.4753 64.014 50.727Z" fill="white"/>
<path d="M69.5504 44.7174C69.9065 44.7174 70.1949 44.4287 70.1949 44.0729C70.1949 43.7167 69.9065 43.4283 69.5504 43.4283H67.4147C67.0585 43.4283 66.7701 43.7167 66.7701 44.0729C66.7701 44.4287 67.0585 44.7174 67.4147 44.7174H69.5504Z" fill="white"/>
<path d="M65.524 34.9971L64.0137 36.5073C63.7623 36.7591 63.7623 37.167 64.0141 37.4187C64.1396 37.5446 64.3048 37.6074 64.4696 37.6074C64.6344 37.6074 64.7996 37.5446 64.9255 37.4187L66.4354 35.9085C66.6872 35.6567 66.6872 35.2488 66.4354 34.9971C66.184 34.7453 65.7758 34.7453 65.524 34.9971Z" fill="white"/>
</g>
<defs>
<filter id="filter0_d" x="0" y="0.390625" width="110" height="110" filterUnits="userSpaceOnUse" color-interpolation-filters="sRGB">
<feFlood flood-opacity="0" result="BackgroundImageFix"/>
<feColorMatrix in="SourceAlpha" type="matrix" values="0 0 0 0 0 0 0 0 0 0 0 0 0 0 0 0 0 0 127 0"/>
<feOffset dy="5"/>
<feGaussianBlur stdDeviation="10"/>
<feColorMatrix type="matrix" values="0 0 0 0 0.890196 0 0 0 0 0.721569 0 0 0 0 0.45098 0 0 0 0.5 0"/>
<feBlend mode="normal" in2="BackgroundImageFix" result="effect1_dropShadow"/>
<feBlend mode="normal" in="SourceGraphic" in2="effect1_dropShadow" result="shape"/>
</filter>
<clipPath id="clip0">
<rect width="44" height="44" fill="white" transform="translate(33 28.3906)"/>
</clipPath>
</defs>
</svg>
