<svg width="120" height="120" viewBox="0 0 120 120" fill="none" xmlns="http://www.w3.org/2000/svg">
<g clip-path="url(#clip0)">
<path d="M84.5533 67.796C88.6375 62.4104 90.7962 55.9821 90.7962 49.2059C90.7962 40.8976 87.5378 33.1093 81.6209 27.2754C75.7052 21.4428 67.8645 18.2931 59.5552 18.4131C51.5028 18.5271 43.9164 21.7582 38.1933 27.5112C32.4705 33.2641 29.2786 40.8676 29.2054 48.9208C29.1428 55.8247 31.3141 62.3685 35.4847 67.8452C42.2551 76.7359 45.984 87.6264 45.984 98.5106V110.42C45.984 115.703 50.2817 120 55.5644 120H64.4757C69.7584 120 74.0561 115.702 74.0561 110.42V98.5114C74.0563 87.5069 77.6599 76.8854 84.5533 67.796ZM38.626 65.4533C34.9914 60.6804 33.0991 54.976 33.1536 48.9568C33.2849 34.4965 45.1535 22.5657 59.611 22.3612C66.8637 22.2638 73.6918 25.0027 78.8486 30.0874C84.0071 35.1732 86.8478 41.9632 86.8478 49.2061C86.8478 55.1134 84.9666 60.7168 81.4072 65.4103C74.144 74.9878 70.2332 86.1613 70.0732 97.7688H49.9269C49.7618 86.2739 45.7634 74.8257 38.626 65.4533ZM49.9324 109.082V107.484L70.1079 109.795V110.42C70.1079 110.749 70.0737 111.07 70.0195 111.383L49.9324 109.082ZM49.9324 103.509V101.717H70.1079V105.821L49.9324 103.509ZM55.5644 116.052C53.4436 116.052 51.5944 114.873 50.6339 113.136L67.6297 115.084C66.7292 115.695 65.6436 116.052 64.4759 116.052H55.5644V116.052Z" fill="#552D1E"/>
<path d="M40.4779 52.1746C40.3239 51.1415 40.2504 50.0801 40.2602 49.0204C40.2702 47.9301 39.3944 47.0383 38.3041 47.0283C37.2212 47.0188 36.3221 47.894 36.312 48.9843C36.3005 50.2505 36.3881 51.5197 36.5726 52.7572C36.7187 53.7369 37.5611 54.4405 38.5229 54.4405C38.6198 54.4405 38.7179 54.4334 38.8166 54.4186C39.8948 54.2575 40.6387 53.2531 40.4779 52.1746Z" fill="#552D1E"/>
<path d="M52.096 82.1627C52.3002 82.1627 52.5082 82.1306 52.713 82.0635C53.7488 81.7228 54.3123 80.607 53.9717 79.5715C51.7838 72.9179 48.5229 66.7189 44.2797 61.1472C43.5785 60.2262 42.957 59.2451 42.4329 58.2309C41.9323 57.2622 40.7412 56.8832 39.7725 57.3839C38.8041 57.8845 38.4248 59.0756 38.9254 60.0443C39.5546 61.2609 40.299 62.4368 41.1387 63.5394C45.115 68.7608 48.1707 74.5697 50.221 80.8047C50.4942 81.6357 51.2663 82.1627 52.096 82.1627Z" fill="#552D1E"/>
<path d="M80.7438 55.9647C79.7425 55.5333 78.5808 55.9955 78.1497 56.9969C77.5242 58.4493 76.7148 59.8347 75.744 61.1145C75.0852 61.9832 75.2555 63.2216 76.1241 63.8805C76.4808 64.1511 76.8999 64.2817 77.3155 64.2817C77.9122 64.2817 78.5019 64.0124 78.8901 63.5001C80.0533 61.9663 81.0241 60.3038 81.7759 58.5588C82.2073 57.5575 81.7454 56.3959 80.7438 55.9647Z" fill="#552D1E"/>
<path d="M60.0001 29.4654C70.885 29.4654 79.7405 38.3212 79.7405 49.2061C79.7405 49.8249 79.7121 50.4485 79.656 51.0595C79.5565 52.1453 80.3556 53.1061 81.4414 53.2058C81.5028 53.2114 81.5636 53.2143 81.6241 53.2143C82.6331 53.2143 83.4938 52.4448 83.5878 51.4204C83.6547 50.6899 83.6889 49.945 83.6889 49.2061C83.6889 36.144 73.0622 25.517 60.0001 25.517C58.9098 25.517 58.0259 26.4009 58.0259 27.4912C58.0259 28.5815 58.9098 29.4654 60.0001 29.4654Z" fill="#552D1E"/>
<path d="M60.0001 15.0039C61.0904 15.0039 61.9743 14.12 61.9743 13.0297V1.9742C61.9743 0.883915 61.0904 0 60.0001 0C58.9098 0 58.0259 0.883915 58.0259 1.9742V13.0297C58.0259 14.12 58.9098 15.0039 60.0001 15.0039Z" fill="#552D1E"/>
<path d="M40.0277 18.9049C40.3936 19.5385 41.0569 19.8926 41.7392 19.8926C42.074 19.8926 42.4136 19.8073 42.7244 19.6278C43.6686 19.0826 43.9924 17.8752 43.4472 16.931L37.9221 7.36009C37.3767 6.41563 36.1696 6.09212 35.2254 6.63727C34.2812 7.18241 33.9574 8.38983 34.5025 9.33402L40.0277 18.9049Z" fill="#552D1E"/>
<path d="M102.19 71.6275L92.6188 66.1024C91.6743 65.557 90.4669 65.8807 89.922 66.8252C89.3769 67.7694 89.7004 68.9768 90.6449 69.5219L100.216 75.0471C100.527 75.2266 100.866 75.3119 101.201 75.3119C101.883 75.3119 102.547 74.9576 102.913 74.3242C103.458 73.38 103.134 72.1726 102.19 71.6275Z" fill="#552D1E"/>
<path d="M17.8104 27.4715L27.3813 32.9966C27.6922 33.1761 28.0315 33.2614 28.3666 33.2614C29.0488 33.2614 29.7124 32.9071 30.0781 32.2738C30.6232 31.3296 30.2997 30.1222 29.3552 29.577L19.7843 24.0519C18.8401 23.5065 17.6327 23.8303 17.0876 24.7747C16.5424 25.7189 16.8659 26.9261 17.8104 27.4715Z" fill="#552D1E"/>
<path d="M107.576 47.5754H96.5201C95.4298 47.5754 94.5459 48.4593 94.5459 49.5496C94.5459 50.6399 95.4298 51.5238 96.5201 51.5238H107.576C108.666 51.5238 109.55 50.6399 109.55 49.5496C109.55 48.4593 108.666 47.5754 107.576 47.5754Z" fill="#552D1E"/>
<path d="M25.4541 49.5496C25.4541 48.4593 24.5702 47.5754 23.4799 47.5754H12.4244C11.3341 47.5754 10.4502 48.4593 10.4502 49.5496C10.4502 50.6399 11.3341 51.5238 12.4244 51.5238H23.4799C24.5705 51.5238 25.4541 50.6399 25.4541 49.5496Z" fill="#552D1E"/>
<path d="M91.634 33.2619C91.9688 33.2619 92.3083 33.1766 92.6192 32.9971L102.19 27.472C103.134 26.9268 103.458 25.7194 102.913 24.7752C102.368 23.831 101.16 23.5072 100.216 24.0524L90.6453 29.5775C89.7011 30.1227 89.3773 31.3301 89.9225 32.2743C90.2881 32.9076 90.9519 33.2619 91.634 33.2619Z" fill="#552D1E"/>
<path d="M27.3812 66.1027L17.8103 71.6278C16.8661 72.173 16.5424 73.3804 17.0875 74.3246C17.4531 74.9579 18.1167 75.3122 18.799 75.3122C19.1338 75.3122 19.4734 75.2269 19.7843 75.0474L29.3552 69.5223C30.2994 68.9771 30.6231 67.7697 30.078 66.8255C29.5331 65.8811 28.3249 65.5575 27.3812 66.1027Z" fill="#552D1E"/>
<path d="M77.2757 19.6278C77.5865 19.8073 77.9258 19.8926 78.2609 19.8926C78.9432 19.8926 79.6068 19.5383 79.9724 18.9049L85.4975 9.33402C86.0427 8.38983 85.7189 7.18241 84.7747 6.63727C83.8308 6.09212 82.6231 6.41563 82.078 7.36009L76.5528 16.931C76.0077 17.8752 76.3315 19.0826 77.2757 19.6278Z" fill="#552D1E"/>
</g>
<defs>
<clipPath id="clip0">
<rect width="120" height="120" fill="white"/>
</clipPath>
</defs>
</svg>
