<svg width="48" height="48" viewBox="0 0 48 48" fill="none" xmlns="http://www.w3.org/2000/svg">
<g clip-path="url(#clip0)">
<path d="M42.1403 5.73557H5.86965C2.63191 5.73557 0 8.36747 0 11.6052V36.3948C0 39.6325 2.63191 42.2644 5.86965 42.2644H42.1304C45.3681 42.2644 48 39.6325 48 36.3948V11.6151C48.0099 8.37741 45.378 5.73557 42.1403 5.73557ZM45.3284 36.3948C45.3284 38.1527 43.8982 39.5829 42.1403 39.5829H5.86965C4.11173 39.5829 2.68156 38.1527 2.68156 36.3948V11.6151C2.68156 9.85723 4.11173 8.42706 5.86965 8.42706H42.1304C43.8883 8.42706 45.3184 9.85723 45.3184 11.6151V36.3948H45.3284Z" fill="#552D1E"/>
<path d="M30.2718 23.6921L42.0111 13.1645C42.5574 12.6679 42.607 11.8237 42.1104 11.2676C41.6138 10.7213 40.7696 10.6717 40.2135 11.1682L24.0248 25.6984L20.8665 22.8777C20.8566 22.8678 20.8466 22.8579 20.8466 22.8479C20.7771 22.7784 20.7076 22.7188 20.6281 22.6592L7.77648 11.1583C7.2203 10.6617 6.3761 10.7114 5.87952 11.2676C5.38293 11.8237 5.43259 12.6679 5.98877 13.1645L17.8671 23.7815L6.03842 34.8554C5.50211 35.3619 5.47232 36.2061 5.97883 36.7524C6.24699 37.0304 6.60453 37.1794 6.96207 37.1794C7.28982 37.1794 7.61757 37.0602 7.87579 36.8219L19.8832 25.5891L23.1408 28.4991C23.3991 28.7275 23.7169 28.8368 24.0347 28.8368C24.3525 28.8368 24.6803 28.7176 24.9286 28.4892L28.2755 25.4898L40.2135 36.8318C40.4717 37.0801 40.8094 37.1993 41.1371 37.1993C41.4947 37.1993 41.8423 37.0602 42.1104 36.7822C42.617 36.2458 42.5971 35.3917 42.0608 34.8852L30.2718 23.6921Z" fill="#552D1E"/>
</g>
<defs>
<clipPath id="clip0">
<rect width="48" height="48" fill="white"/>
</clipPath>
</defs>
</svg>
