<svg width="72" height="72" viewBox="0 0 72 72" fill="none" xmlns="http://www.w3.org/2000/svg">
<circle cx="36" cy="36" r="35.5" fill="#00F0B5" fill-opacity="0.02" stroke="#552D1E"/>
<path d="M38.9334 39.8618C38.6319 41.116 38.6386 42.8033 38.8606 44.4772C39.0832 46.1565 39.5299 47.8777 40.1474 49.2068L40.2818 49.4961H40.6008H46.8H47.1197L47.2538 49.206C47.8682 47.8772 48.3134 46.1577 48.5361 44.4793C48.758 42.8062 48.7661 41.1195 48.4678 39.8632L48.4676 39.8625C48.1704 38.6178 47.607 37.5398 47.0633 36.4996C47.025 36.4264 46.9868 36.3533 46.9488 36.2803C46.364 35.1577 45.8123 34.0468 45.5407 32.6965L45.4599 32.2951H45.0505H42.3503H41.9409L41.8602 32.6965C41.5885 34.0468 41.0368 35.1577 40.452 36.2803C40.414 36.3533 40.3758 36.4264 40.3375 36.4996C39.794 37.5396 39.2307 38.6174 38.9334 39.8618ZM38.9334 39.8618L39.4194 39.9787L38.9332 39.8625C38.9333 39.8623 38.9333 39.862 38.9334 39.8618ZM23.7555 39.6836L23.7554 39.6843C23.4239 41.0712 23.423 42.9707 23.7068 44.8976C23.9902 46.8219 24.5492 48.7177 25.2952 50.0971L25.2962 50.0989L25.408 50.3075H33.191L33.3028 50.0989L33.3037 50.0971C34.0498 48.7176 34.6088 46.8233 34.8922 44.8997C35.1759 42.9736 35.1751 41.0739 34.8435 39.684L34.8434 39.6836C34.5222 38.3315 33.9299 37.2029 33.3315 36.0627C33.2862 35.9765 33.2409 35.8901 33.1957 35.8036C32.5623 34.5922 31.9398 33.3391 31.8 31.8636C31.6991 30.802 32.0124 29.9186 32.3015 29.1038C32.3129 29.0717 32.3242 29.0396 32.3355 29.0077C32.6378 28.1534 32.9144 27.3268 32.8506 26.2546L23.7555 39.6836ZM23.7555 39.6836C24.0765 38.3324 24.6683 37.2056 25.2663 36.0668C25.312 35.9799 25.3576 35.893 25.4032 35.8058C26.0368 34.5949 26.6593 33.3417 26.7989 31.8633M23.7555 39.6836L26.7989 31.8633M29.2988 22.5056C31.1905 22.5108 32.7174 24.0312 32.8506 26.2544L29.2988 22.5056ZM29.2988 22.5056C27.4101 22.506 25.8868 24.0291 25.7483 26.2555L29.2988 22.5056ZM26.7989 31.8633C26.8997 30.8029 26.5858 29.9203 26.2966 29.1068M26.7989 31.8633L26.2966 29.1068M26.2966 29.1068C26.2847 29.0736 26.2729 29.0404 26.2612 29.0073M26.2966 29.1068L26.2612 29.0073M26.2612 29.0073C25.9584 28.1533 25.6819 27.3272 25.7483 26.2557L26.2612 29.0073ZM49.2445 39.6786L49.2445 39.6786C49.576 41.0656 49.5769 42.9637 49.2938 44.8893C49.0111 46.8122 48.4535 48.7068 47.7099 50.0865L47.7093 50.0876L47.5976 50.2963H39.8145L39.7027 50.0876L39.7018 50.0859C38.9557 48.7064 38.3967 46.812 38.1134 44.8892C37.8296 42.9636 37.8305 41.0655 38.162 39.6786L38.1621 39.678C38.4833 38.3259 39.0756 37.1973 39.674 36.0571C39.7193 35.9708 39.7646 35.8845 39.8099 35.798C40.4433 34.5866 41.0658 33.3334 41.2055 31.8578C41.3063 30.7995 40.9934 29.9165 40.7046 29.1019C40.693 29.0693 40.6815 29.0367 40.67 29.0043C40.3678 28.1493 40.0911 27.3213 40.1549 26.249C40.2881 24.0301 41.8102 22.5055 43.7004 22.5C45.5915 22.5055 47.1184 24.0311 47.2516 26.249C47.3153 27.3209 47.0375 28.1472 46.7345 29.0017C46.7235 29.0325 46.7126 29.0635 46.7015 29.0945C46.4115 29.9102 46.097 30.795 46.201 31.8586C46.3408 33.3337 46.9618 34.5851 47.5944 35.7957C47.6402 35.8833 47.6861 35.9707 47.7319 36.0581C48.3291 37.1966 48.921 38.3248 49.2445 39.6786ZM46.4497 26.2962L46.4497 26.296C46.3347 24.3773 45.0738 23.2903 43.7004 23.2903C42.3273 23.2903 41.0664 24.377 40.9512 26.2953C40.8937 27.2145 41.1551 27.993 41.412 28.7201C41.4263 28.7607 41.4406 28.8011 41.4549 28.8414C41.7018 29.538 41.9402 30.2107 42.0037 31.0388L42.0391 31.5006H42.5022H44.8986H45.3616L45.3972 31.0389C45.4608 30.2116 45.6989 29.5366 45.9454 28.8376C45.9592 28.7983 45.9731 28.7589 45.987 28.7194C46.243 27.9913 46.5041 27.2119 46.4497 26.2962ZM32.0488 26.302L32.0487 26.3016C31.9338 24.3829 30.6728 23.2959 29.2995 23.2959C27.9263 23.2959 26.6655 24.3826 26.5503 26.3009C26.4928 27.2202 26.7542 27.9974 27.0111 28.7232C27.0254 28.7635 27.0397 28.8037 27.0539 28.8438C27.3008 29.5391 27.5392 30.2106 27.6027 31.0388L27.6382 31.5006H28.1013H30.4977H30.9608L30.9962 31.0388C31.0599 30.2086 31.2981 29.5357 31.5447 28.8392C31.5584 28.8005 31.5721 28.7617 31.5859 28.7228C31.842 27.9971 32.1032 27.2205 32.0488 26.302ZM32.3991 49.5018H32.7181L32.8525 49.2124C33.47 47.8833 33.9167 46.1621 34.1393 44.4828C34.3613 42.8091 34.368 41.1219 34.0666 39.8678C33.7693 38.6233 33.206 37.5454 32.6624 36.5053C32.6241 36.432 32.5859 36.3589 32.5479 36.286C31.963 35.1634 31.4114 34.0524 31.1397 32.7021L31.059 32.3007H30.6496H27.9494H27.5392L27.459 32.703C27.1902 34.0527 26.6388 35.1633 26.0533 36.2857C26.0145 36.3602 25.9754 36.4348 25.9363 36.5096C25.3928 37.5481 24.8293 38.6248 24.5324 39.8676C24.2309 41.1218 24.2377 42.809 24.4596 44.4828C24.6823 46.1621 25.1289 47.8833 25.7465 49.2124L25.8809 49.5018H26.1999H32.3991Z" fill="#00F0B5" stroke="#552D1E"/>
</svg>
