<svg width="72" height="72" viewBox="0 0 72 72" fill="none" xmlns="http://www.w3.org/2000/svg">
<circle cx="36" cy="36" r="35.5" fill="#00F0B5" fill-opacity="0.02" stroke="#552D1E"/>
<path d="M45.0728 31.7482L45.2193 31.8947H45.4264H49.493V32.6736C49.493 37.3418 45.7086 41.1262 41.0404 41.1262H40.2615V37.0596V36.8525L40.1151 36.706L38.2258 34.8168L37.8723 34.4632L37.5187 34.8168L27.6006 44.735C27.4484 44.8871 27.25 44.963 27.0497 44.963C26.8494 44.963 26.6509 44.8871 26.4988 44.735L25.1423 43.3785C24.838 43.0742 24.838 42.581 25.1423 42.2767L35.0605 32.3585L35.414 32.005L35.0605 31.6514L34.0949 30.6858L34.0947 30.6857C33.7907 30.3819 33.7905 29.8888 34.0949 29.5844L37.9513 25.728C38.1034 25.5759 38.3019 25.5 38.5022 25.5C38.7025 25.5 38.9009 25.5759 39.0531 25.728L40.0182 26.6936L40.3717 27.0473L40.7254 26.6936L41.691 25.728C41.8431 25.5759 42.0415 25.5 42.2418 25.5C42.4422 25.5 42.6406 25.5759 42.7927 25.728L44.1492 27.0845C44.4535 27.3888 44.4535 27.882 44.1492 28.1863L43.1836 29.1519L42.8301 29.5055L43.1836 29.859L45.0728 31.7482ZM42.2407 25.7789H42.0335L41.8871 25.9254L40.9223 26.8902L40.5688 27.2437L40.9222 27.5972L42.2791 28.9545L42.6327 29.3082L42.9863 28.9546L43.9519 27.989L44.3054 27.6354L43.9519 27.2819L42.5954 25.9254L42.449 25.7789H42.2418H42.2407ZM26.6961 44.5376L27.0497 44.8912L27.4032 44.5376L37.3214 34.6195L37.6749 34.2659L37.3214 33.9123L35.9649 32.5559L35.6114 32.2023L35.2578 32.5559L25.3396 42.474L24.9861 42.8276L25.3396 43.1811L26.6961 44.5376ZM40.5404 40.3472V40.8472H41.0404C45.5479 40.8472 49.2141 37.1811 49.2141 32.6736V32.1736H48.7141H45.104L38.8557 25.9254L38.7093 25.7789H38.5022H38.501H38.2938L38.1473 25.9254L34.2922 29.7818L33.9387 30.1354L34.2922 30.4889L40.5404 36.7371V40.3472Z" fill="#00F0B5" stroke="#552D1E"/>
</svg>
