<svg width="72" height="72" viewBox="0 0 72 72" fill="none" xmlns="http://www.w3.org/2000/svg">
<circle cx="36" cy="36" r="35.5" fill="#F67110" fill-opacity="0.02" stroke="#552D1E"/>
<path d="M49.3387 35.6874L49.3433 35.6949L49.3482 35.7022C49.4606 35.8701 49.5112 36.052 49.4979 36.2109L49.4979 36.2111C49.2886 38.7235 47.1764 40.6999 44.6 40.6999C42.0236 40.6999 39.9113 38.7235 39.7021 36.2111L39.702 36.2109C39.6887 36.052 39.7393 35.8702 39.8517 35.7022L39.8566 35.6949L39.8612 35.6874L44.4558 28.2734C44.4906 28.2247 44.5426 28.2 44.6 28.2C44.6573 28.2 44.7093 28.2247 44.7441 28.2734L49.3387 35.6874ZM40.7702 36.6499H40.0596L40.2996 37.3188C40.9262 39.065 42.6265 40.3499 44.6 40.3499C46.5614 40.3499 48.2504 39.0796 48.8849 37.3195L49.1263 36.6499H48.4145H40.7702ZM40.3667 35.5366L39.8937 36.3H40.7917H48.4382H49.3395L48.8624 35.5353L45.0259 29.3861L44.6002 28.7038L44.1766 29.3874L40.3667 35.5366ZM36.675 45.2499V45.7499H37.175H45.4504V46.0999H36.3254V30.3042V29.9172L35.9508 29.8202C35.6548 29.7435 35.3858 29.6074 35.1506 29.4226L34.9386 29.256L34.683 29.3415L28.0683 31.5545L27.9573 31.2229L34.1502 29.1508L34.6526 28.9827L34.4557 28.4908C34.3563 28.2424 34.3 27.9775 34.3 27.7C34.3 26.4848 35.2848 25.5 36.5 25.5C37.5033 25.5 38.3451 26.1782 38.6065 27.1069L38.7486 27.6121L39.2464 27.4456L44.9317 25.5435L45.0428 25.8751L38.9409 27.9169L38.6856 28.0023L38.6164 28.2626C38.4133 29.0265 37.8148 29.6225 37.0497 29.8206L36.675 29.9176V30.3046V45.2499ZM45.0861 25.4918C45.086 25.4919 45.0859 25.4919 45.0858 25.4919L45.086 25.4919L45.0861 25.4918ZM44.8803 25.3899C44.8802 25.3897 44.8801 25.3895 44.88 25.3892L44.8802 25.3895L44.8803 25.3899ZM45.0945 26.0295C45.0944 26.0294 45.0944 26.0292 45.0943 26.029L45.0945 26.0295L45.0945 26.0295ZM27.6445 30.8003C27.4677 30.8594 27.3724 31.0509 27.4314 31.2273L27.6457 31.8673C27.7048 32.044 27.8963 32.1394 28.0727 32.0803L27.6445 30.8003ZM23.6518 41.1022L23.6567 41.0949L23.6613 41.0874L28.2559 33.6734C28.2907 33.6247 28.3427 33.6 28.4 33.6C28.458 33.6 28.5096 33.6247 28.544 33.6731L33.1388 41.0874L33.1434 41.0949L33.1483 41.1022C33.2607 41.2701 33.3113 41.4519 33.298 41.6108L33.2979 41.6111C33.0887 44.1234 30.9764 46.0999 28.4 46.0999C25.8236 46.0999 23.7114 44.1234 23.5021 41.6111L23.5021 41.6108C23.4888 41.4519 23.5394 41.2701 23.6518 41.1022ZM24.5703 42.0499H23.8596L24.0997 42.7188C24.7262 44.465 26.4266 45.7499 28.4 45.7499C30.3615 45.7499 32.0505 44.4796 32.685 42.7195L32.9263 42.0499H32.2146H24.5703ZM24.1668 40.9366L23.6938 41.6999H24.5918H32.2382H33.1395L32.6624 40.9353L28.8259 34.786L28.4002 34.1037L27.9767 34.7874L24.1668 40.9366ZM36.5 25.85C35.4797 25.85 34.65 26.6797 34.65 27.7C34.65 28.7203 35.4797 29.55 36.5 29.55C37.5203 29.55 38.35 28.7203 38.35 27.7C38.35 26.6797 37.5203 25.85 36.5 25.85Z" fill="#F67110" stroke="#552D1E"/>
</svg>
