<svg width="120" height="120" viewBox="0 0 120 120" fill="none" xmlns="http://www.w3.org/2000/svg">
<g clip-path="url(#clip0)">
<path d="M42.5099 77.3313C43.1951 75.096 43.0802 72.7841 42.196 70.8052C41.3425 68.9182 39.8727 67.5594 38.0584 67.0082C37.4804 66.8283 36.8795 66.7402 36.2747 66.7364C32.8987 66.7096 29.7371 69.3124 28.5888 73.0673C27.9075 75.295 28.0223 77.6145 28.9065 79.5858C29.7601 81.4843 31.2261 82.8354 33.0404 83.3866C33.6183 83.5665 34.2193 83.6545 34.824 83.6622C38.1962 83.689 41.3655 81.0824 42.5099 77.3313Z" fill="#552D1E"/>
<path d="M80.7937 84.168C81.3678 84.1718 81.9458 84.0915 82.5047 83.9384C84.3381 83.4331 85.8385 82.1241 86.7418 80.2524C87.0174 79.6859 87.205 79.0773 87.3466 78.461C83.9324 78.7404 77.7125 77.5998 73.0083 76.5817C73.0695 76.9262 73.104 77.2745 73.2035 77.6151C74.2676 81.4466 77.3833 84.1336 80.7937 84.168Z" fill="#552D1E"/>
<path d="M104.828 46.0385C104.828 46.0385 101.662 10.0013 76.3232 2.92405L62.9494 41.7285C61.9236 39.6272 60.6108 36.9708 59.1448 34.0312C65.8087 21.0326 74.861 3.5824 74.861 3.5824L75.7644 2.78242C75.2974 2.66377 74.8342 2.52597 74.3481 2.42263C60.2778 -0.528476 49.6063 1.49634 42.575 4.12975C45.7136 10.3458 63.7839 46.1571 64.3159 47.826C67.8412 55.152 74.107 59.7299 78.1413 62.0877C79.9862 56.9357 81.0388 49.8431 80.0857 40.0865C79.4044 36.1172 77.7049 13.4462 81.7814 9.48077C92.6672 18.4374 91.5303 36.0062 91.5303 36.7986C91.5303 37.3038 100.713 47.7953 100.491 49.38C101.042 52.354 96.4106 53.1234 94.8221 55.1635C97.9952 60.6064 89.8347 62.6465 89.8347 62.6465C89.8347 62.6465 97.7656 66.1603 90.516 70.1219C92.5868 74.4395 92.9313 75.6873 91.071 76.981C90.9907 78.6575 90.6002 80.2804 89.8845 81.7655C88.5371 84.5559 86.2482 86.5195 83.4349 87.2926C82.566 87.5338 81.6627 87.6524 80.7632 87.6486C75.8064 87.6065 71.3166 83.8631 69.843 78.5388C69.7894 78.3322 69.7511 78.1255 69.7014 77.9073L68.9856 75.6528C67.6498 75.3236 66.823 75.1055 66.823 75.1055C66.823 75.1055 67.512 74.895 68.5722 74.3208L59.8491 46.7083L54.2186 43.8605L41.3387 4.61969C35.6125 6.96219 32.6499 9.56881 32.6499 9.56881C32.6499 9.56881 27.3219 -0.210783 21.7642 0.00356428C25.676 2.85132 29.163 9.82143 29.2051 9.95157C29.2472 10.0779 21.0293 1.15185 15.5596 2.42645C21.9326 4.43596 25.2052 10.4185 25.2052 10.4185C25.2052 10.4185 16.8342 4.26754 10.331 5.69908C16.038 7.37941 21.8101 11.5209 21.8101 11.5209C21.8101 11.5209 11.9042 7.49806 6.50723 11.1841C12.3023 11.0157 18.1126 12.8835 18.1126 12.8835C18.1126 12.8835 5.6728 12.5429 3.87382 17.048C9.18657 15.1495 16.5815 15.8576 16.5815 15.8576C16.5815 15.8576 2.6107 18.491 2.12842 23.5932C6.23546 20.4201 13.6496 19.1723 13.6496 19.1723C13.6496 19.1723 3.2346 25.6334 2.51118 30.3949C7.02778 24.9559 14.4572 21.2125 14.4572 21.2125C14.4572 21.2125 9.01432 37.1392 9.5234 37.7095C10.0325 38.2722 11.8468 39.3554 12.2448 41.6175C12.6429 43.8873 1.87579 56.4113 3.06236 58.4476C4.25275 60.4839 9.69181 61.682 9.69181 61.682C9.69181 61.682 7.54069 66.5507 8.333 67.8024C9.12532 69.054 10.2009 68.9966 10.2009 68.9966C10.2009 68.9966 8.72725 69.3372 9.35115 70.6922C9.97506 72.051 12.9108 73.961 13.4314 74.4395C9.33967 85.9032 13.73 86.6343 30.5026 86.1099C28.4204 85.0688 26.7516 83.3157 25.7219 81.023C24.4894 78.2709 24.321 75.0863 25.2511 72.0549C26.5946 67.6684 30.005 64.4302 33.9666 63.5192C34.8202 63.1977 46.617 58.6543 52.2206 47.8107C52.3048 47.5733 52.7603 46.6164 53.4914 45.1696L56.7372 46.8116L56.7219 46.8193L45.8782 78.3743C45.8782 78.3743 45.8744 78.3475 45.8553 78.2977C45.8476 78.3207 45.8438 78.3398 45.8361 78.3666C44.7299 81.9875 42.2037 84.8353 39.1186 86.2286C46.1576 86.4697 52.0254 86.5233 52.0254 86.5233L60.783 86.9482C60.783 86.9482 64.5303 106.546 52.879 113.814C68.6067 112.884 68.9473 90.3471 68.9473 90.3471C68.9473 90.3471 69.288 108.203 63.2518 115.342C73.1998 112.367 72.6831 93.5738 72.6831 93.5738C72.6831 93.5738 78.9796 117.041 55.9372 119.843C94.1982 122.476 94.5312 91.6982 94.5312 91.6982C94.5312 91.6982 97.4172 95.1852 102.604 94.5881C94.2709 87.7902 95.8862 69.0846 95.8862 69.0846C95.8862 69.0846 97.4134 91.3576 105.75 91.7863C104.705 90.5308 103.913 88.6553 103.304 86.4314C117.13 84.1119 110.676 62.6274 110.676 62.6274C110.676 62.6274 116.372 64.6637 116.291 73.2529C123.273 67.121 104.828 46.0385 104.828 46.0385ZM103.312 86.3893C100.644 76.4949 101.769 59.7222 101.769 59.7222C101.769 59.7222 114.079 72.3764 103.312 86.3893Z" fill="#552D1E"/>
<path d="M57.4608 43.3185C58.4755 43.3185 59.2981 42.4959 59.2981 41.4812C59.2981 40.4665 58.4755 39.6439 57.4608 39.6439C56.4461 39.6439 55.6235 40.4665 55.6235 41.4812C55.6235 42.4959 56.4461 43.3185 57.4608 43.3185Z" fill="#552D1E"/>
</g>
<defs>
<clipPath id="clip0">
<rect width="120" height="120" fill="white"/>
</clipPath>
</defs>
</svg>
