<svg width="120" height="120" viewBox="0 0 120 120" fill="none" xmlns="http://www.w3.org/2000/svg">
<path d="M34.8256 55.3772H33.511V44.7178C33.511 43.4545 32.4871 42.4302 31.2234 42.4302H31.027V20.6221C31.027 19.7559 30.5378 18.9638 29.7625 18.5762L12.0598 9.72237C11.3509 9.36795 10.5088 9.40547 9.83413 9.82242C9.15946 10.2391 8.74891 10.9753 8.74891 11.7684V42.4302H8.55249C7.28884 42.4302 6.26493 43.4545 6.26493 44.7178V55.3772H4.94821C3.68456 55.3772 2.66064 56.4014 2.66064 57.6648V117.711C2.66064 118.975 3.68456 119.999 4.94821 119.999H34.825C36.0886 119.999 37.1125 118.975 37.1125 117.711V57.6648C37.1132 56.4014 36.0892 55.3772 34.8256 55.3772ZM13.3246 15.4703L26.4522 22.0359V42.4302H13.3246V15.4703ZM10.841 47.0054H28.9362V55.3772H10.841V47.0054ZM32.538 115.424H7.23638V59.9523H32.538V115.424Z" fill="#552D1E"/>
<path d="M115.051 92.8074H40.7495C39.4858 92.8074 38.4619 93.8317 38.4619 95.095C38.4619 96.3583 39.4858 97.3826 40.7495 97.3826H111.411L110.888 98.4699C108.014 104.441 101.876 108.299 95.2499 108.299H40.7495C39.4858 108.299 38.4619 109.323 38.4619 110.587C38.4619 111.85 39.4858 112.874 40.7495 112.874H95.2499C103.623 112.874 111.38 107.999 115.01 100.454L117.112 96.0869C117.453 95.378 117.406 94.5435 116.988 93.8777C116.569 93.2119 115.837 92.8074 115.051 92.8074Z" fill="#552D1E"/>
<path d="M35.4677 16.8209C43.9972 8.92424 55.1008 4.57512 66.7335 4.57512C92.1144 4.57512 112.763 25.2242 112.763 50.6051C112.763 64.2887 106.734 77.1732 96.221 85.9547C95.2511 86.7648 95.1218 88.2072 95.9319 89.1768C96.3842 89.7185 97.0339 89.9979 97.6888 89.9979C98.2057 89.9979 98.7261 89.8234 99.154 89.4659C110.711 79.8127 117.339 65.6484 117.339 50.6048C117.339 22.7015 94.6371 0 66.7335 0C53.9448 0 41.7374 4.78161 32.3594 13.464C31.4324 14.3223 31.3766 15.7695 32.2349 16.6968C33.0929 17.6234 34.5402 17.6792 35.4677 16.8209Z" fill="#552D1E"/>
<path d="M66.7322 14.0911C86.8676 14.0911 103.249 30.4725 103.249 50.6079C103.249 70.7433 86.8676 87.1247 66.7322 87.1247C57.6798 87.1247 48.9968 83.7885 42.2818 77.7314C41.3442 76.8853 39.8975 76.9594 39.0508 77.8976C38.2047 78.8355 38.2792 80.2821 39.2174 81.1282C46.7743 87.9455 56.5458 91.6998 66.7322 91.6998C89.3903 91.6998 107.824 73.266 107.824 50.6079C107.824 27.9497 89.3903 9.51596 66.7322 9.51596C53.719 9.51596 41.3393 15.7808 33.6168 26.2746C32.8677 27.2921 33.0858 28.7242 34.1033 29.473C35.1208 30.2214 36.5522 30.004 37.3016 28.9865C44.1655 19.6596 55.1678 14.0911 66.7322 14.0911Z" fill="#552D1E"/>
<path d="M91.8978 32.5857L50.152 74.3316C49.2586 75.2249 49.2586 76.6734 50.152 77.5665C50.5988 78.013 51.1844 78.2366 51.7697 78.2366C52.355 78.2366 52.9406 78.0133 53.3875 77.5665L95.133 35.8206C96.0264 34.9272 96.0264 33.4787 95.133 32.5857C94.2393 31.6923 92.7912 31.6923 91.8978 32.5857Z" fill="#552D1E"/>
<path d="M62.8639 74.611C61.9705 75.5044 61.9705 76.9529 62.8639 77.8459C63.3107 78.2925 63.8963 78.516 64.4816 78.516C65.067 78.516 65.6526 78.2928 66.0994 77.8459L97.4421 46.5033C98.3354 45.61 98.3354 44.1615 97.4421 43.2684C96.5484 42.375 95.1002 42.375 94.2069 43.2684L62.8639 74.611Z" fill="#552D1E"/>
</svg>
