<svg width="110" height="111" viewBox="0 0 110 111" fill="none" xmlns="http://www.w3.org/2000/svg">
<g filter="url(#filter0_d)">
<rect x="20" y="15.3906" width="70" height="70" fill="#552D1E"/>
</g>
<path d="M77 42.573C77 40.6475 75.4337 39.0811 73.5081 39.0811H69.1696V36.8783C69.1696 36.5225 68.8813 36.2338 68.5251 36.2338H67.0339V32.6073C67.0339 32.2514 66.7456 31.9627 66.3894 31.9627H61.3392V31.1836C61.3392 30.8278 61.0505 30.5391 60.6947 30.5391H49.305C48.9491 30.5391 48.6604 30.8278 48.6604 31.1836V31.9627H43.6103C43.2541 31.9627 42.9657 32.2514 42.9657 32.6073V36.2338H41.4746C41.1187 36.2338 40.83 36.5225 40.83 36.8783V39.0811H36.4919C34.5663 39.0811 33 40.6475 33 42.573V51.1154C33 51.4716 33.2887 51.7599 33.6445 51.7599H34.4233V66.7762C34.4233 68.7017 35.99 70.268 37.9152 70.268H72.0844C74.01 70.268 75.5763 68.7017 75.5763 66.7762V51.7599H76.3555C76.5263 51.7599 76.6905 51.6921 76.8113 51.5713C76.9322 51.4504 77 51.2866 77 51.1154V42.573ZM67.8806 37.5228V39.0811H64.8986V37.5228H67.8806ZM49.9495 31.8281H60.0502V33.3864H49.9495V31.8281ZM42.1191 37.5228H45.1014V39.0811H42.1191V37.5228ZM74.2873 66.7762C74.2873 67.991 73.299 68.979 72.0844 68.979H37.9152C36.7007 68.979 35.7124 67.991 35.7124 66.7762V51.7599H40.118V53.3182H39.3389C38.9831 53.3182 38.6944 53.6069 38.6944 53.9627V56.8101C38.6944 57.1659 38.9831 57.4546 39.3389 57.4546H40.118V59.6574C40.118 59.9018 40.256 60.1247 40.4745 60.2338L43.3219 61.6578C43.4125 61.7035 43.5112 61.726 43.6103 61.726C43.709 61.726 43.8076 61.7035 43.8983 61.6578L46.7456 60.2338C46.9638 60.1247 47.1021 59.9018 47.1021 59.6574V57.4546H47.881C48.2371 57.4546 48.5255 57.1659 48.5255 56.8101V53.9627C48.5255 53.6069 48.2371 53.3182 47.881 53.3182H47.1021V51.7599H51.5078V54.6747C51.5078 55.0306 51.7965 55.3193 52.1523 55.3193H57.8474C58.2032 55.3193 58.4919 55.0306 58.4919 54.6747V51.7599H62.8975V53.3182H62.1184C61.7622 53.3182 61.4738 53.6069 61.4738 53.9627V56.8101C61.4738 57.1659 61.7622 57.4546 62.1184 57.4546H62.8975V59.6574C62.8975 59.9015 63.0352 60.1247 63.2537 60.2338L66.101 61.6578C66.1917 61.7035 66.2907 61.726 66.3894 61.726C66.4881 61.726 66.5868 61.7035 66.6778 61.6578L69.5251 60.2338C69.7433 60.1247 69.8813 59.9018 69.8813 59.6574V57.4546H70.6604C71.0166 57.4546 71.305 57.1659 71.305 56.8101V53.9627C71.305 53.6069 71.0166 53.3182 70.6604 53.3182H69.8813V51.7599H74.2873V66.7762ZM41.4074 51.1171C41.4074 51.1167 41.4074 51.1161 41.4074 51.1154C41.4074 51.1151 41.4074 51.1144 41.4074 51.1137V48.9126H45.8131V53.3182H41.4074V51.1171ZM39.9838 47.6235V46.0649H47.2368V47.6235H39.9838ZM47.2368 54.6073V56.1656H39.9838V54.6073H47.2368ZM45.8131 57.4546V59.2593L43.6103 60.3611L41.4074 59.2593V57.4546H45.8131ZM54.3555 51.7599V52.5391C54.3555 52.8952 54.6438 53.1836 55 53.1836C55.3558 53.1836 55.6445 52.8952 55.6445 52.5391V51.7599H57.2028V54.0302H52.7968V51.7599H54.3555ZM52.7968 50.4709V49.6246H57.2028V50.4709H52.7968ZM64.1866 51.1171C64.1866 51.1167 64.1866 51.1161 64.1866 51.1154C64.1866 51.1151 64.1866 51.1144 64.1866 51.1137V48.9126H68.5922V53.3182H64.1866V51.1171ZM62.7629 47.6235V46.0649H70.0159V47.6235H62.7629ZM70.0159 54.6073V56.1656H62.7629V54.6073H70.0159ZM68.5922 57.4546V59.2593L66.3894 60.3611L64.1866 59.2593V57.4546H68.5922ZM74.9345 50.4709C74.9335 50.4709 74.9328 50.4709 74.9318 50.4709C74.9311 50.4709 74.9301 50.4709 74.9294 50.4709H69.8813V48.9126H70.6604C71.0166 48.9126 71.305 48.6239 71.305 48.268V46.0652H71.3724C71.7286 46.0652 72.017 45.7765 72.017 45.4207C72.017 45.0645 71.7286 44.7762 71.3724 44.7762H61.4067C61.0505 44.7762 60.7622 45.0645 60.7622 45.4207C60.7622 45.7765 61.0505 46.0652 61.4067 46.0652H61.4738V48.268C61.4738 48.6239 61.7625 48.9126 62.1184 48.9126H62.8975V50.4709H58.4919V48.98C58.4919 48.6239 58.2032 48.3355 57.8474 48.3355H52.1523C51.7965 48.3355 51.5078 48.6239 51.5078 48.98V50.4709H47.1021V48.9126H47.8813C48.2371 48.9126 48.5258 48.6239 48.5258 48.268V46.0652H48.5933C48.9491 46.0652 49.2378 45.7765 49.2378 45.4207C49.2378 45.0645 48.9491 44.7762 48.5933 44.7762H38.6272C38.2714 44.7762 37.9827 45.0645 37.9827 45.4207C37.9827 45.7765 38.2714 46.0652 38.6272 46.0652H38.6947V48.268C38.6947 48.6239 38.9831 48.9126 39.3392 48.9126H40.1184V50.4709H34.2891V42.573C34.2891 41.3585 35.2773 40.3702 36.4919 40.3702H48.5933C48.9491 40.3702 49.2378 40.0815 49.2378 39.7256C49.2378 39.3698 48.9491 39.0811 48.5933 39.0811H46.3905V36.8783C46.3905 36.5225 46.1018 36.2338 45.7459 36.2338H44.2548V33.2518H48.6604V34.0309C48.6604 34.3871 48.9491 34.6755 49.305 34.6755H60.6947C61.0505 34.6755 61.3392 34.3871 61.3392 34.0309V33.2518H65.7452V36.2338H64.2541C63.8979 36.2338 63.6095 36.5225 63.6095 36.8783V39.0811H51.1754C50.8196 39.0811 50.5309 39.3698 50.5309 39.7256C50.5309 40.0815 50.8196 40.3702 51.1754 40.3702H73.5081C74.7227 40.3702 75.7109 41.3585 75.7109 42.573V50.4709H74.9345Z" fill="white"/>
<path d="M37.271 66.7759C37.271 67.132 37.5594 67.4204 37.9155 67.4204H72.0844C72.4403 67.4204 72.7289 67.132 72.7289 66.7759C72.7289 66.42 72.4403 66.1313 72.0844 66.1313H37.9155C37.5594 66.1313 37.271 66.42 37.271 66.7759Z" fill="white"/>
<defs>
<filter id="filter0_d" x="0" y="0.390625" width="110" height="110" filterUnits="userSpaceOnUse" color-interpolation-filters="sRGB">
<feFlood flood-opacity="0" result="BackgroundImageFix"/>
<feColorMatrix in="SourceAlpha" type="matrix" values="0 0 0 0 0 0 0 0 0 0 0 0 0 0 0 0 0 0 127 0"/>
<feOffset dy="5"/>
<feGaussianBlur stdDeviation="10"/>
<feColorMatrix type="matrix" values="0 0 0 0 0.890196 0 0 0 0 0.721569 0 0 0 0 0.45098 0 0 0 0.5 0"/>
<feBlend mode="normal" in2="BackgroundImageFix" result="effect1_dropShadow"/>
<feBlend mode="normal" in="SourceGraphic" in2="effect1_dropShadow" result="shape"/>
</filter>
</defs>
</svg>
