<svg width="48" height="48" viewBox="0 0 48 48" fill="none" xmlns="http://www.w3.org/2000/svg">
<path d="M37.9354 29.7341C36.9527 28.7109 35.7674 28.1638 34.5112 28.1638C33.2651 28.1638 32.0697 28.7008 31.0465 29.724L27.8452 32.9151C27.5818 32.7733 27.3184 32.6416 27.0651 32.5099C26.7004 32.3276 26.356 32.1553 26.0622 31.973C23.0635 30.0684 20.3383 27.5864 17.7246 24.3749C16.4582 22.7743 15.6072 21.4269 14.9893 20.0592C15.82 19.2994 16.5899 18.5092 17.3396 17.7494C17.6233 17.4658 17.9069 17.172 18.1906 16.8883C20.318 14.7609 20.318 12.0053 18.1906 9.87785L15.4249 7.11216C15.1108 6.79811 14.7867 6.47392 14.4827 6.14974C13.8749 5.52163 13.2367 4.87327 12.5782 4.26542C11.5955 3.29287 10.4203 2.7762 9.18437 2.7762C7.94842 2.7762 6.75299 3.29287 5.73992 4.26542C5.72979 4.27555 5.72979 4.27555 5.71966 4.28568L2.27521 7.76053C0.978477 9.05726 0.238934 10.6377 0.0768427 12.4713C-0.166295 15.4295 0.704948 18.1851 1.37358 19.9883C3.01475 24.4155 5.46639 28.5184 9.12358 32.9151C13.5608 38.2135 18.8997 42.3975 24.9984 45.3456C27.3285 46.4498 30.4386 47.7567 33.9135 47.9795C34.1262 47.9897 34.3491 47.9998 34.5517 47.9998C36.8919 47.9998 38.8573 47.159 40.3971 45.4874C40.4073 45.4671 40.4275 45.457 40.4377 45.4367C40.9645 44.7985 41.5723 44.221 42.2105 43.6031C42.6462 43.1877 43.0919 42.7521 43.5275 42.2962C44.5305 41.2527 45.0573 40.037 45.0573 38.791C45.0573 37.5348 44.5203 36.3292 43.4971 35.3161L37.9354 29.7341ZM41.5622 40.4018C41.552 40.4018 41.552 40.4119 41.5622 40.4018C41.1671 40.8272 40.7618 41.2122 40.3262 41.6377C39.6677 42.2658 38.9991 42.9243 38.371 43.6639C37.3478 44.758 36.1422 45.2746 34.5618 45.2746C34.4099 45.2746 34.2478 45.2746 34.0958 45.2645C31.087 45.072 28.2909 43.8969 26.1939 42.8939C20.4599 40.1181 15.4249 36.1772 11.2409 31.1828C7.78633 27.0191 5.47652 23.1694 3.94678 19.036C3.00462 16.5135 2.66018 14.5481 2.81214 12.6942C2.91345 11.5089 3.36933 10.5262 4.21018 9.68537L7.66476 6.23078C8.16116 5.76477 8.68796 5.5115 9.20463 5.5115C9.84286 5.5115 10.3595 5.89647 10.6837 6.22065C10.6938 6.23078 10.704 6.24092 10.7141 6.25105C11.3321 6.8285 11.9197 7.42621 12.5376 8.06445C12.8517 8.38863 13.1759 8.71281 13.5001 9.04713L16.2657 11.8128C17.3396 12.8867 17.3396 13.8795 16.2657 14.9533C15.972 15.2471 15.6883 15.5409 15.3945 15.8246C14.5435 16.6958 13.7331 17.5063 12.8517 18.2965C12.8314 18.3168 12.8112 18.3269 12.801 18.3471C11.9298 19.2184 12.0919 20.0694 12.2742 20.6468C12.2844 20.6772 12.2945 20.7076 12.3046 20.738C13.0239 22.4805 14.037 24.1217 15.5769 26.0769L15.587 26.087C18.3831 29.5315 21.3311 32.2161 24.5831 34.2727C24.9984 34.5361 25.4239 34.7488 25.8292 34.9514C26.1939 35.1338 26.5383 35.306 26.8321 35.4883C26.8726 35.5086 26.9131 35.539 26.9537 35.5593C27.2981 35.7315 27.6223 35.8125 27.9566 35.8125C28.7975 35.8125 29.3243 35.2857 29.4965 35.1135L32.9612 31.6488C33.3056 31.3044 33.8527 30.889 34.4909 30.889C35.119 30.889 35.6357 31.2841 35.9497 31.6285C35.9599 31.6387 35.9599 31.6387 35.97 31.6488L41.552 37.2308C42.5955 38.2642 42.5955 39.3279 41.5622 40.4018Z" fill="#552D1E"/>
<path d="M25.9407 11.4175C28.5949 11.8632 31.006 13.1194 32.9309 15.0443C34.8557 16.9691 36.1018 19.3802 36.5577 22.0345C36.6691 22.7031 37.2466 23.1691 37.9051 23.1691C37.9861 23.1691 38.057 23.159 38.1381 23.1489C38.8877 23.0273 39.3842 22.3181 39.2626 21.5685C38.7155 18.357 37.1959 15.4292 34.876 13.1093C32.556 10.7894 29.6283 9.26976 26.4168 8.7227C25.6672 8.60113 24.9681 9.09754 24.8364 9.83708C24.7047 10.5766 25.191 11.2959 25.9407 11.4175Z" fill="#552D1E"/>
<path d="M47.9446 21.174C47.043 15.8858 44.5509 11.0737 40.7214 7.24425C36.892 3.41483 32.0799 0.92267 26.7917 0.0210356C26.0521 -0.110664 25.3531 0.395873 25.2214 1.13542C25.0999 1.88509 25.5963 2.58411 26.3459 2.71581C31.0669 3.51614 35.3724 5.75503 38.7966 9.16908C42.2208 12.5933 44.4495 16.8988 45.2499 21.6198C45.3613 22.2884 45.9388 22.7544 46.5973 22.7544C46.6783 22.7544 46.7492 22.7443 46.8303 22.7341C47.5698 22.6227 48.0763 21.9135 47.9446 21.174Z" fill="#552D1E"/>
</svg>
