<svg width="118" height="120" viewBox="0 0 118 120" fill="none" xmlns="http://www.w3.org/2000/svg">
<path d="M115.646 7.45336H114.031V1.86328C114.031 0.834141 113.197 0 112.168 0H97.758C96.7286 0 95.8947 0.834375 95.8947 1.86328V7.45336H93.783C92.7536 7.45336 91.9197 8.28773 91.9197 9.31664V15.2794C91.9197 16.3085 92.7539 17.1427 93.783 17.1427H95.8947V22.7327C95.8947 23.7619 96.7289 24.596 97.758 24.596C98.7874 24.596 99.6213 23.7616 99.6213 22.7327V17.1429H110.305V44.0993C110.305 55.4013 101.11 64.5961 89.8078 64.5961H75.7706V53.4159H90.3046C95.4419 53.4159 99.6215 49.2366 99.6215 44.0991V32.6705C99.6215 31.6413 98.7874 30.8072 97.7582 30.8072C96.7289 30.8072 95.895 31.6416 95.895 32.6705V44.0991C95.895 47.1816 93.3871 49.6891 90.3049 49.6891H75.7708V47.0805C75.7708 46.0514 74.9367 45.2173 73.9075 45.2173H67.9448C66.9154 45.2173 66.0815 46.0516 66.0815 47.0805V49.6891H61.8571V36.5215H63.8566C64.6701 39.3855 67.3073 41.4905 70.4285 41.4905C74.1956 41.4905 77.2607 38.4255 77.2607 34.6582C77.2607 30.8909 74.1956 27.8259 70.4285 27.8259C67.3073 27.8259 64.6699 29.9309 63.8566 32.7949H56.1309C55.3174 29.9309 52.6802 27.8259 49.559 27.8259C45.7919 27.8259 42.7268 30.8909 42.7268 34.6582C42.7268 38.4255 45.7919 41.4905 49.559 41.4905C52.6802 41.4905 55.3176 39.3855 56.1309 36.5215H58.1303V49.6891H53.9067V47.0805C53.9067 46.0514 53.0725 45.2173 52.0434 45.2173H46.0807C45.0513 45.2173 44.2174 46.0516 44.2174 47.0805V49.6891H28.6893C15.3323 49.6891 4.46574 60.5557 4.46574 73.9127V82.3598C4.46574 83.389 5.29988 84.2231 6.32902 84.2231C7.3584 84.2231 8.1923 83.3887 8.1923 82.3598V73.9127C8.1923 62.6107 17.3873 53.4159 28.6891 53.4159H44.2171V64.5961H28.1922C23.0547 64.5961 18.8754 68.7755 18.8754 73.913V102.36H8.19277V92.298C8.19277 91.2689 7.35863 90.4348 6.32949 90.4348C5.30012 90.4348 4.46621 91.2691 4.46621 92.298V102.36H2.35449C1.32512 102.36 0.491211 103.195 0.491211 104.224V110.186C0.491211 111.215 1.32535 112.05 2.35449 112.05H4.46621V117.64C4.46621 118.669 5.30035 119.503 6.32949 119.503H20.7393C21.7687 119.503 22.6026 118.669 22.6026 117.64V112.05H24.2175C25.2468 112.05 26.0807 111.215 26.0807 110.186V104.224C26.0807 103.194 25.2466 102.36 24.2175 102.36H22.6026V73.913C22.6026 70.8305 25.1104 68.3229 28.1927 68.3229H44.2176V70.9315C44.2176 71.9606 45.0518 72.7948 46.0809 72.7948H52.0436C53.073 72.7948 53.9069 71.9604 53.9069 70.9315V68.3229H66.0808V70.9315C66.0808 71.9606 66.915 72.7948 67.9441 72.7948H73.9068C74.9362 72.7948 75.7701 71.9604 75.7701 70.9315V68.3229H89.8073C103.164 68.3229 114.031 57.4563 114.031 44.0993V17.1429H115.646C116.675 17.1429 117.509 16.3085 117.509 15.2796V9.31687C117.509 8.28773 116.675 7.45336 115.646 7.45336ZM70.4287 31.5527C72.1413 31.5527 73.5344 32.9459 73.5344 34.6584C73.5344 36.371 72.1413 37.7639 70.4287 37.7639C68.7161 37.7639 67.3232 36.3708 67.3232 34.6584C67.3232 32.9461 68.7161 31.5527 70.4287 31.5527ZM49.559 37.7639C47.8464 37.7639 46.4533 36.3708 46.4533 34.6584C46.4533 32.9461 47.8464 31.5527 49.559 31.5527C51.2716 31.5527 52.6645 32.9459 52.6645 34.6584C52.6645 36.371 51.2716 37.7639 49.559 37.7639ZM18.8758 115.776H8.19277V112.05H18.8761V115.776H18.8758ZM22.3542 108.323H4.21754V106.087H22.3542V108.323ZM50.1803 69.0684H47.9444V48.9443H50.1803V69.0684ZM66.0808 64.5963H53.9069V53.4162H66.0808V64.5963ZM72.0435 69.0684H69.8076V48.9443H72.0435V69.0684ZM99.6213 3.7268H110.305V7.45359H99.6213V3.7268ZM113.783 13.4161H95.646V11.1802H113.783V13.4161Z" fill="#552D1E"/>
</svg>
