<svg width="72" height="72" viewBox="0 0 72 72" fill="none" xmlns="http://www.w3.org/2000/svg">
<circle cx="36" cy="36" r="35.5" fill="#F61067" fill-opacity="0.02" stroke="#552D1E"/>
<path d="M47.8191 34.2763L47.7135 34.6047L47.9831 34.82C48.9328 35.5786 49.5 36.7278 49.5 37.9393C49.5 39.3837 48.7325 40.6914 47.5028 41.4044L47.2399 41.5569L47.2542 41.8605C47.3534 43.9665 45.6498 45.7314 43.5507 45.6775L43.2384 45.6695L43.0943 45.9466C42.4723 47.1425 41.2348 47.9118 39.8626 47.9118C38.6474 47.9118 37.5725 47.3114 36.9044 46.3925L36.5 45.8363L36.0956 46.3925C35.4275 47.3114 34.3526 47.9118 33.1374 47.9118C31.7652 47.9118 30.5277 47.1425 29.9057 45.9466L29.7616 45.6695L29.4493 45.6775C27.3501 45.7314 25.6461 43.9669 25.7458 41.8606L25.7602 41.5569L25.4972 41.4044C24.2675 40.6914 23.5 39.3837 23.5 37.9393C23.5 36.7278 24.0672 35.5785 25.0165 34.8199L25.2859 34.6047L25.1804 34.2764C24.7936 33.0728 25.0144 32.0585 25.446 31.2683C25.8856 30.4633 26.5431 29.8959 26.993 29.6351L27.2631 29.4786L27.241 29.1672C27.1272 27.5622 28.3523 25.9772 30.1134 25.7584L30.3958 25.7233L30.5099 25.4626C31.0249 24.2848 32.1946 23.5 33.5111 23.5C34.5657 23.5 35.4993 24.0074 36.1045 24.7899L36.5 25.3013L36.8955 24.7899C37.5007 24.0074 38.4343 23.5 39.4889 23.5C40.8054 23.5 41.975 24.2848 42.4896 25.4624L42.6036 25.7233L42.8861 25.7584C44.6472 25.9772 45.8723 27.5622 45.7585 29.1672L45.7364 29.4787L46.0066 29.6352C46.4564 29.8957 47.1141 30.4631 47.5537 31.2681C47.9853 32.0584 48.2061 33.0727 47.8191 34.2763ZM36.2029 33.197V32.1409L35.386 32.8102C34.9327 33.1816 34.3979 33.4544 33.8116 33.5935V32.996C35.1853 32.607 36.2029 31.3543 36.2029 29.8527V26.7721C36.2029 25.2895 34.9935 24.0882 33.5111 24.0882C32.6028 24.0882 31.9631 24.4317 31.5241 24.9754C31.2003 25.3765 31.003 25.8665 30.8614 26.3369L30.6182 26.3317L30.6183 26.3316H30.6076H30.5873C29.0386 26.3316 27.83 27.5194 27.83 29.0055C27.83 29.2757 27.8837 29.5385 27.9554 29.8444C27.3956 30.0998 26.8606 30.4138 26.4413 30.8505C25.906 31.4081 25.5881 32.1351 25.5881 33.1002C25.5881 33.3601 25.5901 33.5872 25.693 33.9246C25.7642 34.1584 25.8829 34.4427 26.0721 34.844C25.6838 35.077 25.2664 35.3597 24.9207 35.7343C24.4305 36.2655 24.0937 36.9677 24.0937 37.9393C24.0937 38.9433 24.4331 39.679 24.9762 40.2297C25.3967 40.656 25.9226 40.9537 26.4458 41.1916C26.3702 41.5578 26.3356 41.7492 26.3356 42.034C26.3356 43.7208 27.7116 45.0901 29.4011 45.0901C29.5969 45.0901 29.7391 45.0679 30.1725 44.9942C30.3774 45.5279 30.6404 46.0476 31.0259 46.46C31.5302 46.9995 32.2131 47.3235 33.1374 47.3235C34.8269 47.3235 36.2029 45.9543 36.2029 44.2675V33.197ZM37.614 32.8102L36.7971 32.1409V33.197V44.2675C36.7971 45.9543 38.1731 47.3235 39.8626 47.3235C40.7869 47.3235 41.4698 46.9995 41.9741 46.46C42.3596 46.0475 42.6226 45.5279 42.8275 44.9942C43.2613 45.0679 43.4035 45.0901 43.5989 45.0901C45.2884 45.0901 46.6644 43.7208 46.6644 42.034C46.6644 41.7492 46.6298 41.5578 46.5542 41.1917C47.0774 40.954 47.6032 40.6563 48.0236 40.23C48.5667 39.6793 48.9058 38.9435 48.9058 37.9393C48.9058 36.9677 48.569 36.2655 48.0788 35.7343C47.7331 35.3597 47.3157 35.077 46.9274 34.844C47.1166 34.4427 47.2353 34.1584 47.3065 33.9246C47.4094 33.5872 47.4114 33.3601 47.4114 33.1002C47.4114 32.1351 47.0933 31.408 46.558 30.8503C46.1387 30.4136 45.6037 30.0996 45.044 29.8443C45.1156 29.5387 45.1695 29.2755 45.1695 29.0055C45.1695 27.5194 43.9609 26.3316 42.4122 26.3316H42.3919V26.3315L42.3813 26.3317L42.1382 26.3369C41.9968 25.8665 41.7996 25.3766 41.4758 24.9754C41.037 24.4317 40.3972 24.0882 39.4889 24.0882C38.0065 24.0882 36.7971 25.2895 36.7971 26.7721V29.8527C36.7971 31.3543 37.8147 32.607 39.1884 32.996V33.5935C38.6021 33.4544 38.0673 33.1816 37.614 32.8102Z" fill="#F61067" stroke="#552D1E"/>
</svg>
