<svg width="120" height="120" viewBox="0 0 120 120" fill="none" xmlns="http://www.w3.org/2000/svg">
<g clip-path="url(#clip0)">
<path d="M106.18 84.6844C105.522 84.4115 104.765 84.5622 104.261 85.0659L85.0124 104.314C84.5087 104.818 84.358 105.576 84.6308 106.234C84.9032 106.892 85.5458 107.321 86.2581 107.321H105.506C106.479 107.321 107.268 106.533 107.268 105.56V86.3114C107.268 85.5991 106.838 84.9569 106.18 84.6844ZM90.5097 103.799L103.745 90.5637V103.799H90.5097Z" fill="black"/>
<path d="M118.913 56.4531C118.255 56.1803 117.497 56.331 116.993 56.8346L111.718 62.1097V26.243C111.718 25.2701 110.93 24.4817 109.957 24.4817H96.4239L101.336 19.5692C101.337 19.5685 101.338 19.5675 101.339 19.5668L106.072 14.8334C107.086 13.8192 107.645 12.4702 107.645 11.0358C107.645 9.60142 107.086 8.25282 106.072 7.23821L100.598 1.76461C99.5843 0.750465 98.2352 0.191948 96.8008 0.191948C95.3664 0.191948 94.0176 0.750465 93.0032 1.76461L88.2674 6.5004L82.5449 12.2229L70.2864 24.4814H15.6141V7.05681C15.6141 6.08391 14.8254 5.29547 13.8528 5.29547C6.21447 5.29594 0 11.5099 0 19.1487V93.9581C0 94.0882 0.015 94.2147 0.0417188 94.3366C0.285001 97.5778 1.68727 100.589 4.03079 102.875C6.53579 105.318 9.8426 106.664 13.3423 106.664H67.1638L57.0273 116.801C56.5236 117.304 56.3729 118.062 56.6455 118.72C56.9181 119.378 57.5605 119.807 58.2728 119.807H118.239C119.212 119.807 120 119.019 120 118.046V58.0803C120 57.3681 119.571 56.7257 118.913 56.4531ZM95.4946 4.25578C96.2146 3.53531 97.3877 3.53531 98.1077 4.25578L103.582 9.72962C104.302 10.4499 104.302 11.6224 103.582 12.3429L100.091 15.8332L92.0041 7.7461L95.4946 4.25578ZM89.5132 10.237L97.6003 18.3239L94.3685 21.5557L86.2818 13.4688L89.5132 10.237ZM116.478 77.8715H113.228C112.256 77.8715 111.467 78.6599 111.467 79.6328C111.467 80.6057 112.256 81.3941 113.228 81.3941H116.478V86.7018H113.228C112.256 86.7018 111.467 87.4902 111.467 88.4631C111.467 89.436 112.256 90.2245 113.228 90.2245H116.478V95.5319H113.228C112.256 95.5319 111.467 96.3203 111.467 97.2932C111.467 98.2661 112.256 99.0546 113.228 99.0546H116.478V104.362H113.228C112.256 104.362 111.467 105.151 111.467 106.124C111.467 107.096 112.256 107.885 113.228 107.885H116.478V116.285H62.5248L80.3158 98.4946C81.0037 97.8065 81.0037 96.6916 80.3158 96.0037C80.2368 95.9247 80.152 95.8563 80.0631 95.7953C79.3773 95.3256 78.4338 95.3948 77.8246 96.0037L70.6865 103.142H13.3425C8.00064 103.142 3.70032 98.9714 3.5311 93.6391C3.54118 93.3044 3.56719 92.9725 3.60891 92.6444C3.60915 92.6425 3.60938 92.6406 3.60962 92.6388C3.6293 92.4829 3.65298 92.3278 3.67993 92.1735C3.68298 92.156 3.68626 92.1384 3.6893 92.1208C3.71391 91.9832 3.74157 91.8463 3.7718 91.7099C3.78024 91.672 3.78915 91.634 3.79805 91.5963C3.82477 91.481 3.8536 91.3663 3.88454 91.2522C3.90141 91.1903 3.91899 91.1292 3.93704 91.0675C3.96282 90.978 3.98954 90.8887 4.0179 90.8003C4.04626 90.712 4.07649 90.6245 4.1072 90.5371C4.12852 90.476 4.14962 90.4148 4.17259 90.3541C4.21548 90.2388 4.26095 90.1246 4.30782 90.0114C4.32118 89.9788 4.33431 89.9458 4.34813 89.9132C4.40837 89.7726 4.47095 89.6336 4.53704 89.4963C4.53985 89.4904 4.54243 89.4845 4.54524 89.4787C5.9229 86.6277 8.57252 84.5022 11.7523 83.8427C11.7612 83.8408 11.7701 83.8387 11.779 83.8368C11.9248 83.807 12.072 83.7815 12.2201 83.7578C12.2447 83.7538 12.2693 83.7489 12.2944 83.7452C12.4282 83.7248 12.5635 83.7088 12.6987 83.6936C12.7367 83.6894 12.7744 83.6835 12.8126 83.6798C12.9432 83.6666 13.0749 83.658 13.2066 83.6498C13.2483 83.6472 13.29 83.6427 13.3317 83.6406C13.5042 83.632 13.6782 83.6275 13.8528 83.6275C14.8254 83.6275 15.6141 82.8391 15.6141 81.8662V69.0953C15.6141 68.1224 14.8254 67.334 13.8528 67.334C12.8801 67.334 12.0914 68.1224 12.0914 69.0953V80.2157C9.11721 80.5919 6.3565 81.9184 4.17962 84.0442C3.95063 84.2678 3.7336 84.5003 3.52219 84.7366V19.1487C3.52219 14.0531 7.23142 9.80697 12.0912 8.96837V26.243V62.0502V62.0504C12.0912 63.0231 12.8799 63.8118 13.8525 63.8118C14.8252 63.8118 15.6139 63.0231 15.6139 62.0504V62.0502V28.0043H66.764L57.0271 37.7412C56.3392 38.4294 56.3392 39.5443 57.0271 40.2322C57.715 40.9198 58.8301 40.9198 59.5178 40.2322L72.2615 27.4885C72.2619 27.488 72.2622 27.4875 72.2626 27.4873L83.7904 15.9596L91.8771 24.0467L90.9283 24.9954C90.9276 24.9961 90.9267 24.9968 90.926 24.9975L55.4115 60.5125L47.3246 52.4256L54.325 45.4252C55.0128 44.7371 55.0128 43.6222 54.325 42.9343C53.6371 42.2466 52.5219 42.2466 51.8342 42.9343L43.5882 51.1801C43.5442 51.2242 43.5029 51.2708 43.4642 51.3186C43.4513 51.3345 43.4399 51.3517 43.4277 51.3683C43.4028 51.4013 43.3784 51.4346 43.3557 51.4693C43.3428 51.4895 43.3311 51.5101 43.3189 51.531C43.2995 51.5638 43.2807 51.597 43.2636 51.631C43.2524 51.6531 43.2423 51.6753 43.232 51.6983C43.2163 51.7327 43.2017 51.7679 43.1884 51.8031C43.1837 51.8155 43.1776 51.8272 43.1731 51.8396L39.7416 61.5603L37.4021 68.1883C37.3712 68.2764 37.3489 68.3659 37.3323 68.4561H31.4748C30.5021 68.4561 29.7134 69.2446 29.7134 70.2175C29.7134 71.1904 30.5021 71.9788 31.4748 71.9788H80.2516C81.2245 71.9788 82.0129 71.1904 82.0129 70.2175C82.0129 69.2446 81.2245 68.4561 80.2516 68.4561H45.2563L55.9977 64.6644C56.0066 64.6611 56.015 64.6567 56.0239 64.6534C56.0657 64.6379 56.1067 64.6206 56.1472 64.6021C56.1634 64.5946 56.1796 64.5875 56.1953 64.5798C56.2375 64.5587 56.2789 64.5355 56.3197 64.5107C56.3328 64.5027 56.3464 64.4954 56.3593 64.4872C56.4018 64.46 56.443 64.4303 56.4836 64.3989C56.4936 64.3911 56.5042 64.3843 56.514 64.3764C56.563 64.337 56.611 64.2946 56.6565 64.2491L92.9013 28.0046H108.195V65.6326L83.001 90.8273C82.3131 91.5154 82.3131 92.6303 83.001 93.3182C83.0439 93.3611 83.0887 93.4014 83.1349 93.4392C83.4578 93.7024 83.8523 93.8341 84.2465 93.8341C84.6407 93.8341 85.0354 93.7024 85.3581 93.4392C85.4043 93.4017 85.4491 93.3611 85.492 93.3182C85.4927 93.3175 85.492 93.3182 85.4927 93.3175L116.478 62.3319V77.8715ZM52.19 62.2724L47.1449 64.0534L43.7835 60.692L45.5645 55.6468L52.19 62.2724Z" fill="#552D1E"/>
</g>
<defs>
<clipPath id="clip0">
<rect width="120" height="120" fill="white"/>
</clipPath>
</defs>
</svg>
