<svg width="72" height="72" viewBox="0 0 72 72" fill="none" xmlns="http://www.w3.org/2000/svg">
<circle cx="36" cy="36" r="35.5" fill="#F67110" fill-opacity="0.02" stroke="#552D1E"/>
<path d="M29.125 32.4975L29.124 32.2918L28.9785 32.1464L26.0978 29.2658C26.0978 29.2658 26.0978 29.2658 26.0978 29.2657C25.8751 29.043 25.75 28.7409 25.75 28.426V20.6875C25.75 20.0317 26.2817 19.5 26.9375 19.5H46.0625C46.7183 19.5 47.25 20.0317 47.25 20.6875V28.426C47.25 28.5819 47.2193 28.7363 47.1596 28.8804L47.6216 29.0717L47.1596 28.8804C47.1 29.0245 47.0125 29.1554 46.9022 29.2657L44.0214 32.1464L43.876 32.2919L43.875 32.4976C43.8626 35.0677 43.9073 40.2418 46.0655 47.75H26.9328C29.0935 40.2147 29.1379 35.0523 29.125 32.4975ZM27.5 20.75H27V21.25V28.193V28.4001L27.1464 28.5466L30.3714 31.7716C30.3868 34.6419 30.4096 39.1286 28.7279 45.8791L28.5733 46.5H29.2131H43.784H44.424L44.2692 45.879C42.59 39.1461 42.6134 34.6489 42.6284 31.7756C42.6284 31.7743 42.6284 31.773 42.6284 31.7717L45.8536 28.5466L46 28.4001V28.193V21.25V20.75H45.5H42.125H41.625V21.25V24.125H40.375V21.25V20.75H39.875H33.125H32.625V21.25V24.125H31.375V21.25V20.75H30.875H27.5ZM35.0312 36.5V33.0625C35.0312 32.2513 35.6888 31.5938 36.5 31.5938C37.3112 31.5938 37.9688 32.2513 37.9688 33.0625V36.5H35.0312ZM49.5 51.3438V51.9062C49.5 52.0961 49.3461 52.25 49.1562 52.25H23.8438C23.6539 52.25 23.5 52.0961 23.5 51.9062V51.3438C23.5 51.1539 23.6539 51 23.8438 51H49.1562C49.3461 51 49.5 51.1539 49.5 51.3438Z" fill="#F67110" stroke="#552D1E"/>
</svg>
