<svg width="332" height="210" viewBox="0 0 332 210" fill="none" xmlns="http://www.w3.org/2000/svg">
<path d="M272.037 150.324L304.816 195.854H0L32.3698 150.896C32.3698 150.896 34.5768 147.463 39.4813 147.463H266.07C266.07 147.545 269.994 147.545 272.037 150.324Z" fill="#552D1E"/>
<path d="M255.688 129.397C255.688 132.831 252.909 135.528 249.558 135.528H55.8294C52.3962 135.528 49.6987 132.749 49.6987 129.397V6.13064C49.6987 2.69748 52.478 0 55.8294 0H249.476C252.909 0 255.607 2.77923 255.607 6.13064V129.397H255.688Z" fill="#778899"/>
<path d="M248.25 7.60352H57.1372V127.928H248.25V7.60352Z" fill="white"/>
<path d="M57.1372 7.60352V127.928H248.25L57.1372 7.60352Z" fill="white"/>
<path d="M256.915 137.982L285.606 177.79H19.209L47.4917 138.554C47.4917 138.554 49.3718 135.529 53.7041 135.529H251.765C251.765 135.529 255.116 135.529 256.915 137.982Z" fill="#778899"/>
<path d="M285.606 177.789H19.209V186.372H285.606V177.789Z" fill="#FFF5EE"/>
<path d="M56.4832 139.779H247.514L263.699 162.585H41.1157L56.4832 139.779Z" fill="#FFF5EE"/>
<path d="M132.748 164.383H171.739L178.851 174.437H125.964L132.748 164.383Z" fill="#FFF5EE"/>
<path d="M219.886 33.2695H96.7822V110.761H219.886V33.2695Z" fill="#BCBEC0"/>
<path d="M216.125 23.7871H93.022V106.101H216.125V23.7871Z" fill="#778899"/>
<path d="M216.125 23.7871H93.022V31.6343H216.125V23.7871Z" fill="#552D1E"/>
<path d="M130.378 60.2443C130.296 59.1816 129.152 58.7729 129.152 58.7729L125.555 57.5468L124.002 56.9746C122.858 57.792 121.55 58.0372 121.141 58.119C120.732 58.0372 119.424 57.7103 118.28 56.9746L116.727 57.5468L113.13 58.7729C113.13 58.7729 111.986 59.0999 111.904 60.2443L110.76 66.4567H120.978H121.223H131.44L130.378 60.2443Z" stroke="#FFF5EE" stroke-width="0.817419" stroke-miterlimit="10"/>
<path d="M126.618 48.9636C126.536 52.642 124.002 55.6665 120.977 55.5847C117.953 55.503 115.582 52.4785 115.664 48.7184C115.746 45.04 118.28 42.0156 121.304 42.0973C124.247 42.1791 126.699 45.2035 126.618 48.9636Z" stroke="#FFF5EE" stroke-width="0.817419" stroke-miterlimit="10"/>
<path d="M121.364 73.2349C131.385 73.1096 139.407 64.8844 139.282 54.8632C139.157 44.8421 130.932 36.8199 120.911 36.9451C110.889 37.0703 102.867 45.2956 102.992 55.3168C103.118 65.3379 111.343 73.3601 121.364 73.2349Z" stroke="#FFF5EE" stroke-width="0.817419" stroke-miterlimit="10"/>
<path d="M196.099 84.8477H161.032V98.0081H196.099V84.8477Z" fill="#653D2D"/>
<path d="M196.099 91.3867H161.031V98.0078H196.099V91.3867Z" fill="#552D1E"/>
<path d="M166.753 88.5254H167.489L167.98 92.2855L168.633 88.5254H169.287L168.225 93.5934H167.734L166.753 88.5254Z" fill="white"/>
<path d="M169.696 88.5254H170.35V93.5934H169.696V88.5254Z" fill="white"/>
<path d="M171.167 88.5254H173.048V89.1793H171.903V90.6507H172.884V91.2229H171.903V92.9395H173.048V93.5934H171.167V88.5254Z" fill="white"/>
<path d="M174.519 93.5934H173.947L173.047 88.5254H173.701L174.192 92.2855L174.682 88.5254H175.173L175.745 92.2855L176.235 88.5254H176.889L175.99 93.5934H175.418L174.927 89.8333L174.519 93.5934Z" fill="white"/>
<path d="M178.933 88.5254H179.505L180.241 92.2038L180.895 88.5254H181.549L182.039 93.5934H181.385L181.222 90.0785L180.568 93.5934H180.077L179.423 90.0785L179.26 93.5934H178.606L178.933 88.5254Z" fill="white"/>
<path d="M183.674 88.5254C184.165 88.5254 184.492 88.7706 184.655 89.1793C184.9 89.588 184.982 90.242 184.982 91.1411C184.982 91.8768 184.9 92.449 184.737 92.9395C184.573 93.4299 184.246 93.6751 183.756 93.6751C183.347 93.6751 183.02 93.5117 182.775 93.1029C182.53 92.776 182.366 92.122 182.366 91.1411C182.366 90.3237 182.448 89.6698 182.611 89.1793C182.857 88.7706 183.184 88.5254 183.674 88.5254ZM183.674 89.1793C183.429 89.1793 183.265 89.3428 183.184 89.7515C183.102 90.0785 183.102 90.5689 183.102 91.0594C183.102 91.7951 183.184 92.3673 183.265 92.6942C183.347 93.0212 183.511 93.1847 183.756 93.1847C184.001 93.1847 184.083 93.0212 184.165 92.6942C184.246 92.3673 184.328 91.8768 184.328 91.1411C184.328 90.4872 184.246 89.9968 184.165 89.6698C184.001 89.3428 183.919 89.1793 183.674 89.1793Z" fill="white"/>
<path d="M185.636 88.5254H186.535C187.025 88.5254 187.271 88.6071 187.516 88.8524C187.679 89.0158 187.761 89.4246 187.761 89.8333C187.761 90.1602 187.679 90.4872 187.598 90.6507C187.434 90.8959 187.271 90.9777 187.107 91.0594L188.088 93.5117H187.352L186.371 90.8959V93.5117H185.717V88.5254H185.636ZM186.944 90.5689C187.025 90.4055 187.107 90.242 187.107 89.915C187.107 89.6698 187.107 89.4246 187.025 89.3428C186.944 89.1793 186.78 89.1793 186.617 89.1793H186.535H186.453V90.8959C186.617 90.8142 186.862 90.7324 186.944 90.5689Z" fill="white"/>
<path d="M188.497 88.5254H190.377V89.1793H189.233V90.6507H190.214V91.2229H189.233V92.9395H190.377V93.5934H188.497V88.5254Z" fill="white"/>
<path d="M209.095 43.6516C209.095 44.7142 208.278 45.5316 207.215 45.5316H149.832C148.77 45.5316 147.952 44.7142 147.952 43.6516C147.952 42.5889 148.77 41.7715 149.832 41.7715H207.215C208.278 41.7715 209.095 42.5889 209.095 43.6516Z" fill="#FFF5EE"/>
<path d="M209.095 55.341C209.095 56.4036 208.278 57.2211 207.215 57.2211H149.832C148.77 57.2211 147.952 56.4036 147.952 55.341C147.952 54.2784 148.77 53.4609 149.832 53.4609H207.215C208.278 53.4609 209.095 54.2784 209.095 55.341Z" fill="#FFF5EE"/>
<path d="M209.095 67.0285C209.095 68.0911 208.278 68.9086 207.215 68.9086H149.832C148.77 68.9086 147.952 68.0911 147.952 67.0285C147.952 65.9659 148.77 65.1484 149.832 65.1484H207.215C208.278 65.1484 209.095 65.9659 209.095 67.0285Z" fill="#FFF5EE"/>
<path d="M209.095 78.7179C209.095 79.7806 208.278 80.598 207.215 80.598H149.832C148.77 80.598 147.952 79.7806 147.952 78.7179C147.952 77.6553 148.77 76.8379 149.832 76.8379H207.215C208.278 76.8379 209.095 77.6553 209.095 78.7179Z" fill="#FFF5EE"/>
<path d="M140.841 81.7418C140.841 82.3957 140.269 82.9679 139.615 82.9679H102.668C102.014 82.9679 101.441 82.3957 101.441 81.7418C101.441 81.0878 102.014 80.5156 102.668 80.5156H139.615C140.269 80.5156 140.841 81.0878 140.841 81.7418Z" fill="#FFF5EE"/>
<path d="M140.841 89.2613C140.841 89.9152 140.269 90.4874 139.615 90.4874H102.668C102.014 90.4874 101.441 89.9152 101.441 89.2613C101.441 88.6073 102.014 88.0352 102.668 88.0352H139.615C140.269 88.0352 140.841 88.6073 140.841 89.2613Z" fill="#FFF5EE"/>
<path d="M140.841 96.7828C140.841 97.4367 140.269 98.0089 139.615 98.0089H102.668C102.014 98.0089 101.441 97.4367 101.441 96.7828C101.441 96.1288 102.014 95.5566 102.668 95.5566H139.615C140.269 95.5566 140.841 96.1288 140.841 96.7828Z" fill="#FFF5EE"/>
<path d="M200.676 27.7107C200.676 28.9368 199.695 29.9994 198.387 29.9994C197.161 29.9994 196.099 29.0185 196.099 27.7107C196.099 26.4845 197.08 25.4219 198.387 25.4219C199.695 25.4219 200.676 26.4845 200.676 27.7107Z" fill="#CBE9FA"/>
<path d="M206.807 27.7107C206.807 28.9368 205.826 29.9994 204.518 29.9994C203.21 29.9994 202.229 29.0185 202.229 27.7107C202.229 26.4845 203.21 25.4219 204.518 25.4219C205.826 25.4219 206.807 26.4845 206.807 27.7107Z" fill="#CBE9FA"/>
<path d="M212.937 27.7107C212.937 28.9368 211.956 29.9994 210.649 29.9994C209.422 29.9994 208.36 29.0185 208.36 27.7107C208.36 26.4845 209.341 25.4219 210.649 25.4219C211.956 25.4219 212.937 26.4028 212.937 27.7107Z" fill="#CBE9FA"/>
<path d="M331.3 209.996H225.853L229.94 203.865H328.439L331.3 209.996Z" fill="#552D1E"/>
<path d="M232.719 142.315L278.576 106.512L324.434 142.315H232.719Z" fill="#778899"/>
<path d="M324.352 142.314H232.719V206.891H324.352V142.314Z" fill="#5859A7"/>
<path d="M232.719 206.891L278.576 174.603L232.719 142.314V206.891Z" fill="#778899"/>
<path d="M324.434 206.891L278.577 174.603L324.434 142.314V206.891Z" fill="#778899"/>
<path d="M278.576 174.601L267.378 166.672L232.719 206.889H324.434L289.775 166.672L278.576 174.601Z" fill="#778899"/>
<path d="M232.719 142.314L278.576 166.183L324.434 142.314L278.576 174.603L232.719 142.314Z" fill="#BCBEC0"/>
<path d="M314.38 121.307V149.998L278.577 174.602L242.692 149.998V121.307H314.38Z" fill="white"/>
<path d="M305.633 134.793C305.633 135.446 305.061 136.019 304.407 136.019H252.664C252.01 136.019 251.438 135.446 251.438 134.793C251.438 134.139 252.01 133.566 252.664 133.566H304.407C305.142 133.648 305.633 134.139 305.633 134.793Z" fill="#552D1E"/>
<path d="M305.633 142.314C305.633 142.968 305.061 143.54 304.407 143.54H252.664C252.01 143.54 251.438 142.968 251.438 142.314C251.438 141.66 252.01 141.088 252.664 141.088H304.407C305.142 141.088 305.633 141.66 305.633 142.314Z" fill="#552D1E"/>
<path d="M305.633 149.834C305.633 150.487 305.061 151.06 304.407 151.06H252.664C252.01 151.06 251.438 150.487 251.438 149.834C251.438 149.18 252.01 148.607 252.664 148.607H304.407C305.142 148.607 305.633 149.18 305.633 149.834Z" fill="#552D1E"/>
</svg>
